<?xml version="1.0" encoding="UTF-8" standalone="no"?>
<!-- Created with Inkscape (http://www.inkscape.org/) -->

<svg
   xmlns:dc="http://purl.org/dc/elements/1.1/"
   xmlns:cc="http://creativecommons.org/ns#"
   xmlns:rdf="http://www.w3.org/1999/02/22-rdf-syntax-ns#"
   xmlns:svg="http://www.w3.org/2000/svg"
   xmlns="http://www.w3.org/2000/svg"
   xmlns:sodipodi="http://sodipodi.sourceforge.net/DTD/sodipodi-0.dtd"
   xmlns:inkscape="http://www.inkscape.org/namespaces/inkscape"
   width="135.4666mm"
   height="135.46671mm"
   viewBox="0 0 135.4666 135.46671"
   version="1.1"
   id="svg1034"
   inkscape:version="0.92.3 (2405546, 2018-03-11)"
   sodipodi:docname="spell4explore.svg">
  <defs
     id="defs1028" />
  <sodipodi:namedview
     id="base"
     pagecolor="#ffffff"
     bordercolor="#666666"
     borderopacity="1.0"
     inkscape:pageopacity="0.0"
     inkscape:pageshadow="2"
     inkscape:zoom="1.0624997"
     inkscape:cx="117.17631"
     inkscape:cy="256.00008"
     inkscape:document-units="mm"
     inkscape:current-layer="layer1"
     showgrid="false"
     inkscape:window-width="1366"
     inkscape:window-height="705"
     inkscape:window-x="0"
     inkscape:window-y="30"
     inkscape:window-maximized="1"
     fit-margin-top="0"
     fit-margin-left="0"
     fit-margin-right="0"
     fit-margin-bottom="0" />
  <metadata
     id="metadata1031">
    <rdf:RDF>
      <cc:Work
         rdf:about="">
        <dc:format>image/svg+xml</dc:format>
        <dc:type
           rdf:resource="http://purl.org/dc/dcmitype/StillImage" />
        <dc:title></dc:title>
      </cc:Work>
    </rdf:RDF>
  </metadata>
  <g
     inkscape:label="Layer 1"
     inkscape:groupmode="layer"
     id="layer1"
     transform="translate(-280.76075,-89.41546)">
    <g
       transform="translate(-864.36735,-943.16184)"
       id="g535"
       inkscape:export-xdpi="96"
       inkscape:export-ydpi="96">
      <path
         style="color:#000000;font-style:normal;font-variant:normal;font-weight:normal;font-stretch:normal;font-size:medium;line-height:normal;font-family:sans-serif;font-variant-ligatures:normal;font-variant-position:normal;font-variant-caps:normal;font-variant-numeric:normal;font-variant-alternates:normal;font-feature-settings:normal;text-indent:0;text-align:start;text-decoration:none;text-decoration-line:none;text-decoration-style:solid;text-decoration-color:#000000;letter-spacing:normal;word-spacing:normal;text-transform:none;writing-mode:lr-tb;direction:ltr;text-orientation:mixed;dominant-baseline:auto;baseline-shift:baseline;text-anchor:start;white-space:normal;shape-padding:0;clip-rule:nonzero;display:inline;overflow:visible;visibility:visible;opacity:0.4;isolation:auto;mix-blend-mode:normal;color-interpolation:sRGB;color-interpolation-filters:linearRGB;solid-color:#000000;solid-opacity:1;vector-effect:none;fill:#3465a4;fill-opacity:1;fill-rule:nonzero;stroke:none;stroke-width:4.0263319;stroke-linecap:round;stroke-linejoin:miter;stroke-miterlimit:4;stroke-dasharray:none;stroke-dashoffset:0;stroke-opacity:1;marker:none;paint-order:markers fill stroke;color-rendering:auto;image-rendering:auto;shape-rendering:auto;text-rendering:auto;enable-background:accumulate"
         d="m 1245.4875,1091.3646 c -33.5604,0 -62.8937,18.2603 -78.6126,45.3718 1.4877,1.8534 3.0866,3.6146 4.7879,5.2741 14.2368,-26.1434 41.9286,-43.8762 73.8247,-43.8762 9.0612,0 17.7705,1.4573 25.9426,4.1062 0.043,-0.6433 0.076,-1.2872 0.098,-1.9316 -0.014,-1.7348 -0.1062,-3.4681 -0.2744,-5.1948 -8.1723,-2.4227 -16.812,-3.7495 -25.7656,-3.7495 z"
         id="path8689"
         inkscape:connector-curvature="0" />
      <path
         style="color:#000000;font-style:normal;font-variant:normal;font-weight:normal;font-stretch:normal;font-size:medium;line-height:normal;font-family:sans-serif;font-variant-ligatures:normal;font-variant-position:normal;font-variant-caps:normal;font-variant-numeric:normal;font-variant-alternates:normal;font-feature-settings:normal;text-indent:0;text-align:start;text-decoration:none;text-decoration-line:none;text-decoration-style:solid;text-decoration-color:#000000;letter-spacing:normal;word-spacing:normal;text-transform:none;writing-mode:lr-tb;direction:ltr;text-orientation:mixed;dominant-baseline:auto;baseline-shift:baseline;text-anchor:start;white-space:normal;shape-padding:0;clip-rule:nonzero;display:inline;overflow:visible;visibility:visible;opacity:0.5;isolation:auto;mix-blend-mode:normal;color-interpolation:sRGB;color-interpolation-filters:linearRGB;solid-color:#000000;solid-opacity:1;vector-effect:none;fill:#3465a4;fill-opacity:1;fill-rule:nonzero;stroke:none;stroke-width:4.0263319;stroke-linecap:round;stroke-linejoin:miter;stroke-miterlimit:4;stroke-dasharray:none;stroke-dashoffset:0;stroke-opacity:1;marker:none;paint-order:markers fill stroke;color-rendering:auto;image-rendering:auto;shape-rendering:auto;text-rendering:auto;enable-background:accumulate"
         d="m 1245.4875,1100.5705 c -31.132,0 -58.2071,17.497 -71.9618,43.1734 1.6932,1.544 3.4755,2.9874 5.3376,4.3229 12.3906,-24.1874 37.5482,-40.7238 66.6242,-40.724 8.747,2e-4 17.1257,1.5249 24.9226,4.2781 0.4321,-2.2643 0.7303,-4.5522 0.8931,-6.8516 -8.1176,-2.7123 -16.7921,-4.1988 -25.8157,-4.1988 z"
         id="path8691"
         inkscape:connector-curvature="0" />
      <path
         style="color:#000000;font-style:normal;font-variant:normal;font-weight:normal;font-stretch:normal;font-size:medium;line-height:normal;font-family:sans-serif;font-variant-ligatures:normal;font-variant-position:normal;font-variant-caps:normal;font-variant-numeric:normal;font-variant-alternates:normal;font-feature-settings:normal;text-indent:0;text-align:start;text-decoration:none;text-decoration-line:none;text-decoration-style:solid;text-decoration-color:#000000;letter-spacing:normal;word-spacing:normal;text-transform:none;writing-mode:lr-tb;direction:ltr;text-orientation:mixed;dominant-baseline:auto;baseline-shift:baseline;text-anchor:start;white-space:normal;shape-padding:0;clip-rule:nonzero;display:inline;overflow:visible;visibility:visible;opacity:0.6;isolation:auto;mix-blend-mode:normal;color-interpolation:sRGB;color-interpolation-filters:linearRGB;solid-color:#000000;solid-opacity:1;vector-effect:none;fill:#3465a4;fill-opacity:1;fill-rule:nonzero;stroke:none;stroke-width:4.0263319;stroke-linecap:round;stroke-linejoin:miter;stroke-miterlimit:4;stroke-dasharray:none;stroke-dashoffset:0;stroke-opacity:1;marker:none;paint-order:markers fill stroke;color-rendering:auto;image-rendering:auto;shape-rendering:auto;text-rendering:auto;enable-background:accumulate"
         d="m 1245.4875,1109.6602 c -28.2128,0 -52.6813,16.1751 -64.6636,39.7384 1.8904,1.2259 3.8498,2.342 5.8686,3.3426 10.7857,-21.542 33.0343,-36.3193 58.795,-36.3192 7.8831,0 15.4269,1.406 22.4256,3.945 0.7724,-2.1134 1.4227,-4.2696 1.9474,-6.4578 -7.6223,-2.7313 -15.8185,-4.249 -24.373,-4.249 z"
         id="path8693"
         inkscape:connector-curvature="0" />
      <path
         style="color:#000000;font-style:normal;font-variant:normal;font-weight:normal;font-stretch:normal;font-size:medium;line-height:normal;font-family:sans-serif;font-variant-ligatures:normal;font-variant-position:normal;font-variant-caps:normal;font-variant-numeric:normal;font-variant-alternates:normal;font-feature-settings:normal;text-indent:0;text-align:start;text-decoration:none;text-decoration-line:none;text-decoration-style:solid;text-decoration-color:#000000;letter-spacing:normal;word-spacing:normal;text-transform:none;writing-mode:lr-tb;direction:ltr;text-orientation:mixed;dominant-baseline:auto;baseline-shift:baseline;text-anchor:start;white-space:normal;shape-padding:0;clip-rule:nonzero;display:inline;overflow:visible;visibility:visible;opacity:1;isolation:auto;mix-blend-mode:normal;color-interpolation:sRGB;color-interpolation-filters:linearRGB;solid-color:#000000;solid-opacity:1;vector-effect:none;fill:#1a1a1a;fill-opacity:1;fill-rule:nonzero;stroke:none;stroke-width:4.83159924;stroke-linecap:round;stroke-linejoin:miter;stroke-miterlimit:4;stroke-dasharray:none;stroke-dashoffset:0;stroke-opacity:1;marker:none;paint-order:markers fill stroke;color-rendering:auto;image-rendering:auto;shape-rendering:auto;text-rendering:auto;enable-background:accumulate"
         d="m 1212.8584,1032.5773 c -37.3801,0 -67.7303,30.3503 -67.7303,67.7304 0,37.3801 30.3502,67.7363 67.7303,67.7363 37.3802,0 67.7363,-30.3562 67.7363,-67.7363 0,-37.3801 -30.3561,-67.7304 -67.7363,-67.7304 z m 0,4.8269 c 34.769,0 62.9036,28.1346 62.9036,62.9035 0,34.769 -28.1346,62.9035 -62.9036,62.9035 -34.7689,0 -62.9035,-28.1345 -62.9035,-62.9035 0,-34.7689 28.1346,-62.9035 62.9035,-62.9035 z"
         id="path8695"
         inkscape:connector-curvature="0" />
      <path
         style="color:#000000;font-style:normal;font-variant:normal;font-weight:normal;font-stretch:normal;font-size:medium;line-height:normal;font-family:sans-serif;font-variant-ligatures:normal;font-variant-position:normal;font-variant-caps:normal;font-variant-numeric:normal;font-variant-alternates:normal;font-feature-settings:normal;text-indent:0;text-align:start;text-decoration:none;text-decoration-line:none;text-decoration-style:solid;text-decoration-color:#000000;letter-spacing:normal;word-spacing:normal;text-transform:none;writing-mode:lr-tb;direction:ltr;text-orientation:mixed;dominant-baseline:auto;baseline-shift:baseline;text-anchor:start;white-space:normal;shape-padding:0;clip-rule:nonzero;display:inline;overflow:visible;visibility:visible;opacity:0.5;isolation:auto;mix-blend-mode:normal;color-interpolation:sRGB;color-interpolation-filters:linearRGB;solid-color:#000000;solid-opacity:1;vector-effect:none;fill:#3465a4;fill-opacity:1;fill-rule:nonzero;stroke:none;stroke-width:4.0263319;stroke-linecap:round;stroke-linejoin:miter;stroke-miterlimit:4;stroke-dasharray:none;stroke-dashoffset:0;stroke-opacity:1;marker:none;paint-order:markers fill stroke;color-rendering:auto;image-rendering:auto;shape-rendering:auto;text-rendering:auto;enable-background:accumulate"
         d="m 1180.2425,1091.3646 c -8.9621,0 -17.6094,1.3326 -25.7893,3.7601 a 58.666939,58.666939 0 0 0 -0.2586,5.1842 58.666939,58.666939 0 0 0 0.068,1.9395 c 8.1818,-2.6557 16.9061,-4.1141 25.9796,-4.1141 6.4605,0 12.7455,0.7365 18.7845,2.1139 2.9268,-1.6652 5.9523,-3.1741 9.0632,-4.5237 -8.777,-2.8305 -18.1351,-4.3599 -27.8477,-4.3599 z"
         id="path8697"
         inkscape:connector-curvature="0" />
      <path
         style="color:#000000;font-style:normal;font-variant:normal;font-weight:normal;font-stretch:normal;font-size:medium;line-height:normal;font-family:sans-serif;font-variant-ligatures:normal;font-variant-position:normal;font-variant-caps:normal;font-variant-numeric:normal;font-variant-alternates:normal;font-feature-settings:normal;text-indent:0;text-align:start;text-decoration:none;text-decoration-line:none;text-decoration-style:solid;text-decoration-color:#000000;letter-spacing:normal;word-spacing:normal;text-transform:none;writing-mode:lr-tb;direction:ltr;text-orientation:mixed;dominant-baseline:auto;baseline-shift:baseline;text-anchor:start;white-space:normal;shape-padding:0;clip-rule:nonzero;display:inline;overflow:visible;visibility:visible;opacity:0.6;isolation:auto;mix-blend-mode:normal;color-interpolation:sRGB;color-interpolation-filters:linearRGB;solid-color:#000000;solid-opacity:1;vector-effect:none;fill:#3465a4;fill-opacity:1;fill-rule:nonzero;stroke:none;stroke-width:4.0263319;stroke-linecap:round;stroke-linejoin:miter;stroke-miterlimit:4;stroke-dasharray:none;stroke-dashoffset:0;stroke-opacity:1;marker:none;paint-order:markers fill stroke;color-rendering:auto;image-rendering:auto;shape-rendering:auto;text-rendering:auto;enable-background:accumulate"
         d="m 1180.2425,1100.5705 c -9.0403,0 -17.7319,1.4927 -25.8633,4.2146 a 58.666939,58.666939 0 0 0 0.9672,6.8278 c 7.7894,-2.7471 16.1592,-4.2699 24.8961,-4.2701 2.565,0 5.0963,0.1368 7.5942,0.3886 2.5956,-2.0139 5.2977,-3.8978 8.0988,-5.6362 -5.0799,-0.9928 -10.3243,-1.5246 -15.693,-1.5246 z"
         id="path8699"
         inkscape:connector-curvature="0" />
      <path
         style="color:#000000;font-style:normal;font-variant:normal;font-weight:normal;font-stretch:normal;font-size:medium;line-height:normal;font-family:sans-serif;font-variant-ligatures:normal;font-variant-position:normal;font-variant-caps:normal;font-variant-numeric:normal;font-variant-alternates:normal;font-feature-settings:normal;text-indent:0;text-align:start;text-decoration:none;text-decoration-line:none;text-decoration-style:solid;text-decoration-color:#000000;letter-spacing:normal;word-spacing:normal;text-transform:none;writing-mode:lr-tb;direction:ltr;text-orientation:mixed;dominant-baseline:auto;baseline-shift:baseline;text-anchor:start;white-space:normal;shape-padding:0;clip-rule:nonzero;display:inline;overflow:visible;visibility:visible;opacity:0.7;isolation:auto;mix-blend-mode:normal;color-interpolation:sRGB;color-interpolation-filters:linearRGB;solid-color:#000000;solid-opacity:1;vector-effect:none;fill:#3465a4;fill-opacity:1;fill-rule:nonzero;stroke:none;stroke-width:4.0263319;stroke-linecap:round;stroke-linejoin:miter;stroke-miterlimit:4;stroke-dasharray:none;stroke-dashoffset:0;stroke-opacity:1;marker:none;paint-order:markers fill stroke;color-rendering:auto;image-rendering:auto;shape-rendering:auto;text-rendering:auto;enable-background:accumulate"
         d="m 1180.2425,1109.6602 c -8.5569,0 -16.7563,1.5163 -24.3809,4.249 a 58.666939,58.666939 0 0 0 1.9236,6.4684 c 6.3536,-2.3057 13.1597,-3.6677 20.2589,-3.9028 2.275,-2.3344 4.6718,-4.548 7.1767,-6.6376 -1.646,-0.112 -3.3042,-0.1771 -4.9783,-0.1771 z"
         id="path8701"
         inkscape:connector-curvature="0" />
      <path
         style="color:#000000;font-style:normal;font-variant:normal;font-weight:normal;font-stretch:normal;font-size:medium;line-height:normal;font-family:sans-serif;font-variant-ligatures:normal;font-variant-position:normal;font-variant-caps:normal;font-variant-numeric:normal;font-variant-alternates:normal;font-feature-settings:normal;text-indent:0;text-align:start;text-decoration:none;text-decoration-line:none;text-decoration-style:solid;text-decoration-color:#000000;letter-spacing:normal;word-spacing:normal;text-transform:none;writing-mode:lr-tb;direction:ltr;text-orientation:mixed;dominant-baseline:auto;baseline-shift:baseline;text-anchor:start;white-space:normal;shape-padding:0;clip-rule:nonzero;display:inline;overflow:visible;visibility:visible;opacity:0.8;isolation:auto;mix-blend-mode:normal;color-interpolation:sRGB;color-interpolation-filters:linearRGB;solid-color:#000000;solid-opacity:1;vector-effect:none;fill:#3465a4;fill-opacity:1;fill-rule:nonzero;stroke:none;stroke-width:4.0263319;stroke-linecap:round;stroke-linejoin:miter;stroke-miterlimit:4;stroke-dasharray:none;stroke-dashoffset:0;stroke-opacity:1;marker:none;paint-order:markers fill stroke;color-rendering:auto;image-rendering:auto;shape-rendering:auto;text-rendering:auto;enable-background:accumulate"
         d="m 1175.9276,1118.7208 c -6.0633,0.4112 -11.8977,1.6668 -17.3814,3.6598 a 58.666939,58.666939 0 0 0 2.9357,6.1196 c 2.6502,-0.9243 5.3895,-1.6629 8.2018,-2.1932 1.9492,-2.6385 4.036,-5.168 6.2439,-7.5862 z"
         id="path8703"
         inkscape:connector-curvature="0" />
      <path
         style="color:#000000;font-style:normal;font-variant:normal;font-weight:normal;font-stretch:normal;font-size:medium;line-height:normal;font-family:sans-serif;font-variant-ligatures:normal;font-variant-position:normal;font-variant-caps:normal;font-variant-numeric:normal;font-variant-alternates:normal;font-feature-settings:normal;text-indent:0;text-align:start;text-decoration:none;text-decoration-line:none;text-decoration-style:solid;text-decoration-color:#000000;letter-spacing:normal;word-spacing:normal;text-transform:none;writing-mode:lr-tb;direction:ltr;text-orientation:mixed;dominant-baseline:auto;baseline-shift:baseline;text-anchor:start;white-space:normal;shape-padding:0;clip-rule:nonzero;display:inline;overflow:visible;visibility:visible;opacity:1;isolation:auto;mix-blend-mode:normal;color-interpolation:sRGB;color-interpolation-filters:linearRGB;solid-color:#000000;solid-opacity:1;vector-effect:none;fill:#3465a4;fill-opacity:1;fill-rule:nonzero;stroke:none;stroke-width:4.0263319;stroke-linecap:round;stroke-linejoin:miter;stroke-miterlimit:4;stroke-dasharray:none;stroke-dashoffset:0;stroke-opacity:1;marker:none;paint-order:markers fill stroke;color-rendering:auto;image-rendering:auto;shape-rendering:auto;text-rendering:auto;enable-background:accumulate"
         d="m 1167.7918,1128.9626 c -1.7623,0.4142 -3.4905,0.9174 -5.1843,1.4956 a 58.666939,58.666939 0 0 0 2.135,3.2923 c 0.9749,-1.6246 1.9794,-3.2299 3.0493,-4.7879 z"
         id="path8705"
         inkscape:connector-curvature="0" />
      <text
         transform="scale(0.99012303,1.0099755)"
         id="text8709"
         y="1101.2429"
         x="1173.8337"
         style="font-style:normal;font-weight:normal;font-size:113.61849213px;line-height:1.25;font-family:sans-serif;letter-spacing:0px;word-spacing:0px;opacity:1;fill:#0055d4;fill-opacity:1;stroke:#fcfcfc;stroke-width:2.84046268;stroke-opacity:1"
         xml:space="preserve"><tspan
           style="font-style:normal;font-variant:normal;font-weight:normal;font-stretch:normal;font-family:'EB Garamond';-inkscape-font-specification:'EB Garamond';fill:#0055d4;fill-opacity:1;stroke:#fcfcfc;stroke-width:2.84046268;stroke-opacity:1"
           y="1101.2429"
           x="1173.8337"
           id="tspan8707"
           sodipodi:role="line">W</tspan></text>
      <path
         inkscape:connector-curvature="0"
         style="color:#000000;font-style:normal;font-variant:normal;font-weight:normal;font-stretch:normal;font-size:medium;line-height:normal;font-family:sans-serif;font-variant-ligatures:normal;font-variant-position:normal;font-variant-caps:normal;font-variant-numeric:normal;font-variant-alternates:normal;font-feature-settings:normal;text-indent:0;text-align:start;text-decoration:none;text-decoration-line:none;text-decoration-style:solid;text-decoration-color:#000000;letter-spacing:normal;word-spacing:normal;text-transform:none;writing-mode:lr-tb;direction:ltr;text-orientation:mixed;dominant-baseline:auto;baseline-shift:baseline;text-anchor:start;white-space:normal;shape-padding:0;clip-rule:nonzero;display:inline;overflow:visible;visibility:visible;opacity:0.7;isolation:auto;mix-blend-mode:normal;color-interpolation:sRGB;color-interpolation-filters:linearRGB;solid-color:#000000;solid-opacity:1;vector-effect:none;fill:#3465a4;fill-opacity:1;fill-rule:nonzero;stroke:none;stroke-width:4.0263319;stroke-linecap:round;stroke-linejoin:miter;stroke-miterlimit:4;stroke-dasharray:none;stroke-dashoffset:0;stroke-opacity:1;marker:none;paint-order:markers fill stroke;color-rendering:auto;image-rendering:auto;shape-rendering:auto;text-rendering:auto;enable-background:accumulate"
         d="m 1245.4875,1118.557 c -24.8511,0 -46.3883,14.3114 -56.8528,35.1221 a 58.666939,58.666939 0 0 0 6.302,2.4628 c 9.4338,-18.3125 28.5025,-30.8232 50.5508,-30.823 6.5972,0 12.922,1.1328 18.8082,3.1945 a 58.666939,58.666939 0 0 0 2.8802,-6.1223 c -6.7733,-2.4662 -14.0699,-3.8341 -21.6884,-3.8341 z"
         id="path8711" />
      <path
         inkscape:connector-curvature="0"
         style="color:#000000;font-style:normal;font-variant:normal;font-weight:normal;font-stretch:normal;font-size:medium;line-height:normal;font-family:sans-serif;font-variant-ligatures:normal;font-variant-position:normal;font-variant-caps:normal;font-variant-numeric:normal;font-variant-alternates:normal;font-feature-settings:normal;text-indent:0;text-align:start;text-decoration:none;text-decoration-line:none;text-decoration-style:solid;text-decoration-color:#000000;letter-spacing:normal;word-spacing:normal;text-transform:none;writing-mode:lr-tb;direction:ltr;text-orientation:mixed;dominant-baseline:auto;baseline-shift:baseline;text-anchor:start;white-space:normal;shape-padding:0;clip-rule:nonzero;display:inline;overflow:visible;visibility:visible;opacity:0.8;isolation:auto;mix-blend-mode:normal;color-interpolation:sRGB;color-interpolation-filters:linearRGB;solid-color:#000000;solid-opacity:1;vector-effect:none;fill:#3465a4;fill-opacity:1;fill-rule:nonzero;stroke:none;stroke-width:4.0263319;stroke-linecap:round;stroke-linejoin:miter;stroke-miterlimit:4;stroke-dasharray:none;stroke-dashoffset:0;stroke-opacity:1;marker:none;paint-order:markers fill stroke;color-rendering:auto;image-rendering:auto;shape-rendering:auto;text-rendering:auto;enable-background:accumulate"
         d="m 1245.4875,1127.5173 c -20.9731,0 -39.2046,11.8751 -48.3656,29.2482 a 58.666939,58.666939 0 0 0 6.8939,1.4664 c 8.2687,-14.3213 23.716,-23.9556 41.4717,-23.9556 4.7464,0 9.3229,0.7 13.6477,1.9819 a 58.666939,58.666939 0 0 0 3.9767,-5.8133 c -5.5321,-1.8924 -11.4582,-2.9277 -17.6244,-2.9276 z"
         id="path8713" />
      <path
         inkscape:connector-curvature="0"
         style="color:#000000;font-style:normal;font-variant:normal;font-weight:normal;font-stretch:normal;font-size:medium;line-height:normal;font-family:sans-serif;font-variant-ligatures:normal;font-variant-position:normal;font-variant-caps:normal;font-variant-numeric:normal;font-variant-alternates:normal;font-feature-settings:normal;text-indent:0;text-align:start;text-decoration:none;text-decoration-line:none;text-decoration-style:solid;text-decoration-color:#000000;letter-spacing:normal;word-spacing:normal;text-transform:none;writing-mode:lr-tb;direction:ltr;text-orientation:mixed;dominant-baseline:auto;baseline-shift:baseline;text-anchor:start;white-space:normal;shape-padding:0;clip-rule:nonzero;display:inline;overflow:visible;visibility:visible;opacity:0.9;isolation:auto;mix-blend-mode:normal;color-interpolation:sRGB;color-interpolation-filters:linearRGB;solid-color:#000000;solid-opacity:1;vector-effect:none;fill:#3465a4;fill-opacity:1;fill-rule:nonzero;stroke:none;stroke-width:4.0263319;stroke-linecap:round;stroke-linejoin:miter;stroke-miterlimit:4;stroke-dasharray:none;stroke-dashoffset:0;stroke-opacity:1;marker:none;paint-order:markers fill stroke;color-rendering:auto;image-rendering:auto;shape-rendering:auto;text-rendering:auto;enable-background:accumulate"
         d="m 1245.4875,1136.2158 c -16.7019,0 -31.3326,8.9689 -39.3764,22.3331 a 58.666939,58.666939 0 0 0 6.7486,0.428 58.666939,58.666939 0 0 0 1.0702,-0.037 c 7.1274,-9.6762 18.5867,-15.9545 31.5576,-15.9545 2.3475,0 4.6407,0.2214 6.8727,0.6157 a 58.666939,58.666939 0 0 0 5.504,-5.6705 c -3.9405,-1.1087 -8.0864,-1.716 -12.3767,-1.716 z"
         id="path8715" />
      <path
         inkscape:connector-curvature="0"
         style="color:#000000;font-style:normal;font-variant:normal;font-weight:normal;font-stretch:normal;font-size:medium;line-height:normal;font-family:sans-serif;font-variant-ligatures:normal;font-variant-position:normal;font-variant-caps:normal;font-variant-numeric:normal;font-variant-alternates:normal;font-feature-settings:normal;text-indent:0;text-align:start;text-decoration:none;text-decoration-line:none;text-decoration-style:solid;text-decoration-color:#000000;letter-spacing:normal;word-spacing:normal;text-transform:none;writing-mode:lr-tb;direction:ltr;text-orientation:mixed;dominant-baseline:auto;baseline-shift:baseline;text-anchor:start;white-space:normal;shape-padding:0;clip-rule:nonzero;display:inline;overflow:visible;visibility:visible;opacity:1;isolation:auto;mix-blend-mode:normal;color-interpolation:sRGB;color-interpolation-filters:linearRGB;solid-color:#000000;solid-opacity:1;vector-effect:none;fill:#3465a4;fill-opacity:1;fill-rule:nonzero;stroke:none;stroke-width:4.0263319;stroke-linecap:round;stroke-linejoin:miter;stroke-miterlimit:4;stroke-dasharray:none;stroke-dashoffset:0;stroke-opacity:1;marker:none;paint-order:markers fill stroke;color-rendering:auto;image-rendering:auto;shape-rendering:auto;text-rendering:auto;enable-background:accumulate"
         d="m 1245.4875,1144.8246 c -11.7648,0 -22.2617,5.4915 -29.1108,14.0283 a 58.666939,58.666939 0 0 0 11.8483,-1.9422 c 3.6067,-2.4652 7.7737,-4.1722 12.2737,-4.9067 a 58.666939,58.666939 0 0 0 10.0541,-6.8147 c -1.6577,-0.2301 -3.3454,-0.3646 -5.0653,-0.3646 z"
         id="path8717" />
      <g
         id="g8733"
         transform="matrix(1.1317868,0,0,1.1317868,-241.38156,277.50568)">
        <path
           style="fill:#ffffff;fill-opacity:1;stroke:none;stroke-width:0.29390293px;stroke-linecap:butt;stroke-linejoin:miter;stroke-opacity:1"
           d="m 1302.3084,778.24653 c 0,0 0.1422,2.6482 0.048,3.67318 -0.034,0.36442 -0.7227,0.53513 -1.0396,0.35219 -1.0012,-0.57805 -2.1878,-1.31043 -2.1878,-1.31043 -0.7464,0.74642 -2.1776,3.20617 -3.3106,3.84497 -0.53,0.34104 -0.7286,0.23555 -0.7228,-0.0787 0,-1.45538 -0.012,-5.21011 -0.012,-5.21011 z"
           id="path8719"
           inkscape:connector-curvature="0"
           sodipodi:nodetypes="cssccccc" />
        <g
           transform="matrix(0.62816041,0,0,0.62816041,451.46488,340.94708)"
           id="g8729">
          <path
             style="fill:#ffffff;fill-opacity:1;stroke:none;stroke-width:0.26458332px;stroke-linecap:butt;stroke-linejoin:miter;stroke-opacity:1"
             d="m 1294.4665,662.38414 31.8051,-14.96708 41.7207,18.89595 -3.3676,2.43216 v 2.99342 l 1.4967,3.55467 2.4322,1.68381 -16.4638,7.10936 v 14.40584 l -3.3676,-1.49672 c 0,0 -4.1159,6.17392 -3.3676,4.86431 0.7484,-1.30963 0,-14.21873 0,-14.21873 l -9.1673,3.92885 c 0,0 -2.6193,-0.37417 -4.6772,-1.68381 -2.058,-1.30961 -39.2887,-17.21215 -39.2887,-17.21215 l -2.0579,-2.99342 0.187,-3.92885 1.6838,-2.99341 z"
             id="path8721"
             inkscape:connector-curvature="0" />
          <g
             id="g8727"
             transform="matrix(1.7128289,0,0,1.7128289,1240.3023,582.13667)"
             style="fill:#666666;fill-opacity:1">
            <path
               inkscape:connector-curvature="0"
               d="m 36.6,46.9 19.5,8.7 c 0,0 0.1,0 0.1,0 0.1,0 0.2,-0.1 0.3,-0.2 0.1,-0.2 0,-0.3 -0.2,-0.4 L 36.8,46.3 c -0.2,-0.1 -0.3,0 -0.4,0.2 -0.1,0.1 0,0.3 0.2,0.4 z"
               id="path8723"
               style="fill:#666666;fill-opacity:1" />
            <path
               inkscape:connector-curvature="0"
               d="m 74.3,54.5 -0.2,0.1 C 73.4,54 73,53.1 73,52.2 c 0,-0.5 0.1,-1 0.3,-1.4 L 75.1,50 c 0.3,-0.2 0.6,-0.5 0.6,-0.9 0,-0.4 -0.2,-0.7 -0.6,-0.9 l -24.5,-11 c -0.3,-0.1 -0.5,-0.1 -0.8,0 l -18.9,8.6 c 0,0 0,0 -0.1,0 -1.6,0.7 -2.6,2.3 -2.6,4.1 0,1.8 1,3.3 2.6,4.1 l 24.5,10.9 c 0,0 0,0 0,0 0.1,0 0.2,0.1 0.3,0.1 0,0 0,0 0,0 0,0 0,0 0,0 0,0 0,0 0,0 0,0 0,0 0,0 0.1,0 0.2,0 0.4,-0.1 0,0 0,0 0,0 l 4.8,-2.2 v 8.2 c 0,0.1 0.1,0.2 0.2,0.3 0,0 0.1,0 0.1,0 0.1,0 0.2,0 0.2,-0.1 l 2.3,-3 1.8,1 c 0.1,0.1 0.2,0.1 0.3,0 0.1,-0.1 0.2,-0.2 0.2,-0.3 V 60.3 L 75,56.2 c 0.5,-0.2 0.7,-0.8 0.5,-1.3 -0.1,-0.4 -0.7,-0.6 -1.2,-0.4 z m -0.8,0.4 -7.9,3.6 C 65.3,58 64.9,57.6 64.4,57.2 l 2,-0.9 c 0.2,-0.1 0.2,-0.3 0.2,-0.4 -0.1,-0.2 -0.3,-0.2 -0.4,-0.2 l -2.6,1.1 -4.5,2 -2.5,1.2 c -0.2,0.1 -0.2,0.3 -0.2,0.4 0.1,0.1 0.2,0.2 0.3,0.2 0,0 0.1,0 0.1,0 l 2.3,-1 c 0.6,0.3 1,0.7 1.3,1.2 L 55.7,63 c -0.7,-0.5 -1.2,-1.2 -1.2,-2.1 0,-1 0.5,-1.8 1.4,-2.3 0,0 0,0 0.1,0 l 16.4,-7.4 c -0.1,0.3 -0.1,0.7 -0.1,1.1 0.1,0.9 0.5,1.9 1.2,2.6 z M 50.2,39.2 72.4,49.1 55.8,56.7 33.6,46.8 Z m -19,8.6 22.6,10.1 c -0.7,0.8 -1.1,1.8 -1.1,3 0,0.3 0,0.5 0.1,0.8 L 31.6,52.3 C 30.7,51.9 30.1,51 30.1,50 c 0,-1 0.4,-1.7 1.1,-2.2 z"
               id="path8725"
               style="fill:#5b5b5b;fill-opacity:1" />
          </g>
        </g>
        <path
           sodipodi:nodetypes="ccccccccc"
           inkscape:connector-curvature="0"
           id="path8731"
           d="m 1294.4419,770.54466 5.1447,-2.26834 c 1.2485,1.12093 1.6099,1.55616 1.5215,3.83534 l 0.047,8.58435 -2.2451,-1.27656 -2.5781,3.38129 0.058,-9.41806 c -0.055,-1.0167 -0.6813,-2.24746 -1.9484,-2.83802 z"
           style="fill:#ffffff;fill-opacity:1;stroke:#5b5b5b;stroke-width:0.70132464;stroke-linecap:butt;stroke-linejoin:miter;stroke-miterlimit:4;stroke-dasharray:none;stroke-opacity:1" />
      </g>
    </g>
  </g>
</svg>
