<?xml version="1.0" encoding="UTF-8" standalone="no"?>
<!-- Created with Inkscape (http://www.inkscape.org/) -->

<svg
   xmlns:dc="http://purl.org/dc/elements/1.1/"
   xmlns:cc="http://creativecommons.org/ns#"
   xmlns:rdf="http://www.w3.org/1999/02/22-rdf-syntax-ns#"
   xmlns:svg="http://www.w3.org/2000/svg"
   xmlns="http://www.w3.org/2000/svg"
   xmlns:sodipodi="http://sodipodi.sourceforge.net/DTD/sodipodi-0.dtd"
   xmlns:inkscape="http://www.inkscape.org/namespaces/inkscape"
   width="256"
   height="256"
   viewBox="0 0 67.733332 67.733335"
   version="1.1"
   id="svg8"
   inkscape:version="0.92.3 (2405546, 2018-03-11)"
   sodipodi:docname="spell4wiki.svg">
  <defs
     id="defs2" />
  <sodipodi:namedview
     id="base"
     pagecolor="#ffffff"
     bordercolor="#666666"
     borderopacity="1.0"
     inkscape:pageopacity="0.0"
     inkscape:pageshadow="2"
     inkscape:zoom="0.70710678"
     inkscape:cx="2581.1405"
     inkscape:cy="21.70377"
     inkscape:document-units="mm"
     inkscape:current-layer="layer1"
     showgrid="false"
     inkscape:window-width="1366"
     inkscape:window-height="705"
     inkscape:window-x="0"
     inkscape:window-y="30"
     inkscape:window-maximized="1"
     inkscape:showpageshadow="false"
     units="px"
     showguides="true"
     inkscape:guide-bbox="true" />
  <metadata
     id="metadata5">
    <rdf:RDF>
      <cc:Work
         rdf:about="">
        <dc:format>image/svg+xml</dc:format>
        <dc:type
           rdf:resource="http://purl.org/dc/dcmitype/StillImage" />
        <dc:title />
      </cc:Work>
    </rdf:RDF>
  </metadata>
  <g
     inkscape:label="Layer 1"
     inkscape:groupmode="layer"
     id="layer1"
     transform="translate(0,-229.26665)">
    <path
       transform="scale(1,-1)"
       sodipodi:open="true"
       sodipodi:cx="602.71863"
       sodipodi:cy="-187.89732"
       sodipodi:rx="27.034311"
       sodipodi:ry="27.034311"
       sodipodi:end="3.1415927"
       sodipodi:start="0"
       sodipodi:type="arc"
       d="m 629.75294,-187.89732 a 27.034311,27.034311 0 0 1 -13.51716,23.4124 27.034311,27.034311 0 0 1 -27.03431,0 27.034311,27.034311 0 0 1 -13.51715,-23.4124"
       id="circle14100"
       style="opacity:1;fill:none;fill-opacity:1;stroke:#333333;stroke-width:3.96875;stroke-linecap:round;stroke-linejoin:miter;stroke-miterlimit:4;stroke-dasharray:none;stroke-opacity:1" />
    <text
       xml:space="preserve"
       style="font-style:normal;font-weight:normal;font-size:75.24046326px;line-height:1.25;font-family:sans-serif;letter-spacing:0px;word-spacing:0px;opacity:1;fill:#000000;fill-opacity:1;stroke:#fcfcfc;stroke-width:1.88101172;stroke-opacity:1;"
       x="375.3558"
       y="284.71265"
       id="text14179"><tspan
         sodipodi:role="line"
         id="tspan14177"
         x="375.3558"
         y="284.71265"
         style="font-style:normal;font-variant:normal;font-weight:normal;font-stretch:normal;font-family:'EB Garamond';-inkscape-font-specification:'EB Garamond';stroke-width:1.88101172;stroke:#fcfcfc;stroke-opacity:1;">W</tspan></text>
    <text
       id="text12180"
       y="212.87059"
       x="447.19019"
       style="font-style:normal;font-weight:normal;font-size:75.24046326px;line-height:1.25;font-family:sans-serif;letter-spacing:0px;word-spacing:0px;opacity:1;fill:#000000;fill-opacity:1;stroke:#fcfcfc;stroke-width:1.88101172;stroke-opacity:1"
       xml:space="preserve"><tspan
         style="font-style:normal;font-variant:normal;font-weight:normal;font-stretch:normal;font-family:'EB Garamond';-inkscape-font-specification:'EB Garamond';stroke:#fcfcfc;stroke-width:1.88101172;stroke-opacity:1"
         y="212.87059"
         x="447.19019"
         id="tspan12178"
         sodipodi:role="line">W</tspan></text>
    <path
       inkscape:connector-curvature="0"
       d="m 63.416606,259.05159 -6.441003,-3.26141 6.096974,-3.15207 c 0.194185,-0.10099 0.194185,-0.263 -0.0011,-0.36123 l -6.87601,-3.4812 7.229214,-3.7377 c 0.351293,-0.18234 0.559622,-0.50572 0.557711,-0.86543 -0.0023,-0.35893 -0.214445,-0.67926 -0.565738,-0.85663 l -14.099109,-7.13748 c -0.26108,-0.1319 -0.533629,-0.15977 -0.716728,-0.15977 -0.168193,0 -0.419718,0.0237 -0.663213,0.13768 l -16.027206,7.50329 c -0.364673,0.17087 -0.584469,0.49043 -0.587909,0.85435 -0.0035,0.36428 0.211005,0.68806 0.573,0.86618 l 7.698243,3.78548 -7.3588,3.44489 c -0.196479,0.0922 -0.197244,0.24578 -0.0019,0.34173 l 6.534275,3.21324 -6.856898,3.20941 c -0.365054,0.17087 -0.584852,0.49044 -0.587909,0.85435 -0.003,0.36428 0.211387,0.68806 0.573001,0.86542 l 15.119731,7.43564 c 0.248849,0.12266 0.507253,0.14832 0.680033,0.14832 0.181952,0 0.453355,-0.0279 0.715582,-0.16246 l 15.01461,-7.76285 c 0.351294,-0.18234 0.559622,-0.50572 0.557712,-0.86543 -0.003,-0.35856 -0.214828,-0.67926 -0.566503,-0.85624 z M 48.560249,237.57113 c 0.0038,-7.7e-4 0.01872,-0.003 0.04053,-0.003 0.02332,0 0.04053,0.003 0.03135,-0.003 l 13.114801,6.63902 -14.012337,7.2468 c -0.0038,7.6e-4 -0.01835,0.004 -0.03937,0.004 l -0.0053,0.009 -14.045976,-6.90698 z m -0.82376,29.5946 c -0.0042,10e-4 -0.01949,0.004 -0.04167,0.004 l -0.0046,0.009 -14.045593,-6.90735 6.641689,-3.10927 6.728077,3.30843 c 0.24923,0.12265 0.507636,0.14869 0.680414,0.14869 0.182336,0 0.45412,-0.0283 0.714818,-0.16284 l 7.122948,-3.68228 6.213562,3.14598 z"
       id="path6779"
       style="stroke-width:0.38225541" />
    <circle
       r="27.034311"
       cy="256.30826"
       cx="22.918373"
       id="circle12133"
       style="opacity:0.3;fill:#138351;fill-opacity:1;stroke:none;stroke-width:0.86891574;stroke-linecap:square;stroke-linejoin:miter;stroke-miterlimit:4;stroke-dasharray:none;stroke-opacity:1" />
    <circle
       style="opacity:0.3;fill:#138351;fill-opacity:1;stroke:none;stroke-width:0.7185843;stroke-linecap:square;stroke-linejoin:miter;stroke-miterlimit:4;stroke-dasharray:none;stroke-opacity:1"
       id="circle12131"
       cx="20.766853"
       cy="257.52432"
       r="22.357096" />
    <circle
       r="16.744436"
       cy="258.74042"
       cx="19.550777"
       id="circle12129"
       style="opacity:0.3;fill:#138351;fill-opacity:1;stroke:none;stroke-width:0.53818655;stroke-linecap:square;stroke-linejoin:miter;stroke-miterlimit:4;stroke-dasharray:none;stroke-opacity:1" />
    <circle
       style="opacity:0.3;fill:#138351;fill-opacity:1;stroke:none;stroke-width:0.36981535;stroke-linecap:square;stroke-linejoin:miter;stroke-miterlimit:4;stroke-dasharray:none;stroke-opacity:1"
       id="path12127"
       cx="18.3347"
       cy="259.95648"
       r="11.505954" />
    <text
       xml:space="preserve"
       style="font-style:normal;font-weight:normal;font-size:12.7417345px;line-height:1.25;font-family:sans-serif;letter-spacing:0px;word-spacing:0px;fill:#000000;fill-opacity:1;stroke:none;stroke-width:0.31854331"
       x="-232.24498"
       y="217.72386"
       id="text6803"
       transform="matrix(0.79280012,-0.41956264,1.0648268,0.6978284,0,0)"><tspan
         sodipodi:role="line"
         id="tspan6801"
         x="-232.24498"
         y="217.72386"
         style="font-style:normal;font-variant:normal;font-weight:normal;font-stretch:normal;font-family:'EB Garamond';-inkscape-font-specification:'EB Garamond';stroke-width:0.31854331">W</tspan></text>
    <text
       xml:space="preserve"
       style="font-style:normal;font-weight:normal;font-size:49.66407776px;line-height:1.25;font-family:sans-serif;letter-spacing:0px;word-spacing:0px;fill:#000000;fill-opacity:1;stroke:none;stroke-width:1.24160194"
       x="102.1523"
       y="260.60251"
       id="text12125"><tspan
         sodipodi:role="line"
         id="tspan12123"
         x="102.1523"
         y="260.60251"
         style="font-style:normal;font-variant:normal;font-weight:normal;font-stretch:normal;font-family:'EB Garamond';-inkscape-font-specification:'EB Garamond';stroke-width:1.24160194">W</tspan></text>
    <g
       id="g12146">
      <path
         id="path617"
         d="m 16.631891,280.30115 c 3.330952,0 6.032193,-2.70009 6.032193,-6.03181 v -12.11567 c -3.86e-4,-3.33057 -2.701627,-6.03181 -6.032193,-6.03181 -3.331724,0 -6.031808,2.70124 -6.031808,6.03181 v 12.11567 c -3.85e-4,3.33172 2.699699,6.03181 6.031808,6.03181 z"
         inkscape:connector-curvature="0"
         style="fill:#0000d4;stroke-width:0.38561612;fill-opacity:1" />
      <path
         id="path619"
         d="m 25.475611,271.81721 v 2.46023 c 0,4.87727 -3.966833,8.8441 -8.844106,8.8441 -4.877273,0 -8.8441059,-3.96683 -8.8441059,-8.8441 v -2.46023 c 0,0 0.028247,-1.5875 -1.2089065,-1.5875 -1.2371533,0 -1.2089066,1.5875 -1.2089066,1.5875 v 2.46023 c 0,5.80159 4.4095204,10.59095 10.053013,11.19636 v 4.47778 H 8.7711059 c 0,0 -1.2921942,0.1356 -1.2921942,1.2091 0,1.0735 1.2921942,1.2091 1.2921942,1.2091 H 24.492676 c 0,0 1.447183,-0.0187 1.447183,-1.2091 0,-1.19043 -1.447183,-1.2091 -1.447183,-1.2091 h -6.651879 v -4.47778 c 5.643492,-0.60503 10.053013,-5.39438 10.053013,-11.19636 v -2.46023 c 0,0 -0.02303,-1.5875 -1.2091,-1.5875 -1.18607,0 -1.209099,1.5875 -1.209099,1.5875 z"
         inkscape:connector-curvature="0"
         style="fill:#000000;stroke-width:0.38561612"
         sodipodi:nodetypes="csssczcsccczcczcccsczc" />
      <g
         id="g12138">
        <rect
           style="opacity:1;fill:#ffffff;fill-opacity:1;stroke:#000000;stroke-width:0.26458332;stroke-linecap:square;stroke-linejoin:miter;stroke-miterlimit:4;stroke-dasharray:none;stroke-opacity:1"
           id="rect7595"
           width="6.8791666"
           height="2.6458333"
           x="17.578741"
           y="261.02469"
           rx="1.3229166"
           ry="1.3229166" />
        <rect
           ry="1.3229166"
           rx="1.3229166"
           y="264.72882"
           x="17.578741"
           height="2.6458333"
           width="6.8791666"
           id="rect8402"
           style="opacity:1;fill:#ffffff;fill-opacity:1;stroke:#000000;stroke-width:0.26458332;stroke-linecap:square;stroke-linejoin:miter;stroke-miterlimit:4;stroke-dasharray:none;stroke-opacity:1" />
        <rect
           style="opacity:1;fill:#ffffff;fill-opacity:1;stroke:#000000;stroke-width:0.26458332;stroke-linecap:square;stroke-linejoin:miter;stroke-miterlimit:4;stroke-dasharray:none;stroke-opacity:1"
           id="rect8404"
           width="6.8791666"
           height="2.6458333"
           x="17.578741"
           y="268.43295"
           rx="1.3229166"
           ry="1.3229166" />
      </g>
    </g>
    <circle
       style="opacity:0.3;fill:#138351;fill-opacity:1;stroke:none;stroke-width:0.86891574;stroke-linecap:square;stroke-linejoin:miter;stroke-miterlimit:4;stroke-dasharray:none;stroke-opacity:1"
       id="circle12150"
       cx="105.80054"
       cy="256.30826"
       r="27.034311" />
    <circle
       r="22.357096"
       cy="257.52432"
       cx="103.64902"
       id="circle12152"
       style="opacity:0.3;fill:#138351;fill-opacity:1;stroke:none;stroke-width:0.7185843;stroke-linecap:square;stroke-linejoin:miter;stroke-miterlimit:4;stroke-dasharray:none;stroke-opacity:1" />
    <circle
       style="opacity:0.3;fill:#138351;fill-opacity:1;stroke:none;stroke-width:0.53818655;stroke-linecap:square;stroke-linejoin:miter;stroke-miterlimit:4;stroke-dasharray:none;stroke-opacity:1"
       id="circle12154"
       cx="102.43295"
       cy="258.74042"
       r="16.744436" />
    <circle
       r="11.505954"
       cy="259.95648"
       cx="101.21687"
       id="circle12156"
       style="opacity:0.3;fill:#138351;fill-opacity:1;stroke:none;stroke-width:0.36981535;stroke-linecap:square;stroke-linejoin:miter;stroke-miterlimit:4;stroke-dasharray:none;stroke-opacity:1" />
    <g
       id="g12174"
       transform="translate(82.882162)">
      <path
         style="fill:#0000d4;fill-opacity:1;stroke-width:0.38561612"
         inkscape:connector-curvature="0"
         d="m 16.631891,280.30115 c 3.330952,0 6.032193,-2.70009 6.032193,-6.03181 v -12.11567 c -3.86e-4,-3.33057 -2.701627,-6.03181 -6.032193,-6.03181 -3.331724,0 -6.031808,2.70124 -6.031808,6.03181 v 12.11567 c -3.85e-4,3.33172 2.699699,6.03181 6.031808,6.03181 z"
         id="path12162" />
      <path
         sodipodi:nodetypes="csssczcsccczcczcccsczc"
         style="fill:#000000;stroke-width:0.38561612"
         inkscape:connector-curvature="0"
         d="m 25.475611,271.81721 v 2.46023 c 0,4.87727 -3.966833,8.8441 -8.844106,8.8441 -4.877273,0 -8.8441059,-3.96683 -8.8441059,-8.8441 v -2.46023 c 0,0 0.028247,-1.5875 -1.2089065,-1.5875 -1.2371533,0 -1.2089066,1.5875 -1.2089066,1.5875 v 2.46023 c 0,5.80159 4.4095204,10.59095 10.053013,11.19636 v 4.47778 H 8.7711059 c 0,0 -1.2921942,0.1356 -1.2921942,1.2091 0,1.0735 1.2921942,1.2091 1.2921942,1.2091 H 24.492676 c 0,0 1.447183,-0.0187 1.447183,-1.2091 0,-1.19043 -1.447183,-1.2091 -1.447183,-1.2091 h -6.651879 v -4.47778 c 5.643492,-0.60503 10.053013,-5.39438 10.053013,-11.19636 v -2.46023 c 0,0 -0.02303,-1.5875 -1.2091,-1.5875 -1.18607,0 -1.209099,1.5875 -1.209099,1.5875 z"
         id="path12164" />
      <g
         id="g12172">
        <rect
           ry="1.3229166"
           rx="1.3229166"
           y="261.02469"
           x="17.578741"
           height="2.6458333"
           width="6.8791666"
           id="rect12166"
           style="opacity:1;fill:#ffffff;fill-opacity:1;stroke:#000000;stroke-width:0.26458332;stroke-linecap:square;stroke-linejoin:miter;stroke-miterlimit:4;stroke-dasharray:none;stroke-opacity:1" />
        <rect
           style="opacity:1;fill:#ffffff;fill-opacity:1;stroke:#000000;stroke-width:0.26458332;stroke-linecap:square;stroke-linejoin:miter;stroke-miterlimit:4;stroke-dasharray:none;stroke-opacity:1"
           id="rect12168"
           width="6.8791666"
           height="2.6458333"
           x="17.578741"
           y="264.72882"
           rx="1.3229166"
           ry="1.3229166" />
        <rect
           ry="1.3229166"
           rx="1.3229166"
           y="268.43295"
           x="17.578741"
           height="2.6458333"
           width="6.8791666"
           id="rect12170"
           style="opacity:1;fill:#ffffff;fill-opacity:1;stroke:#000000;stroke-width:0.26458332;stroke-linecap:square;stroke-linejoin:miter;stroke-miterlimit:4;stroke-dasharray:none;stroke-opacity:1" />
      </g>
    </g>
    <rect
       style="opacity:0.3;fill:none;fill-opacity:1;stroke:#000000;stroke-width:0.26458332;stroke-linecap:square;stroke-linejoin:miter;stroke-miterlimit:4;stroke-dasharray:none;stroke-opacity:1"
       id="rect12176"
       width="67.913185"
       height="67.913185"
       x="79.187912"
       y="229.08679" />
    <circle
       r="27.034311"
       cy="256.30826"
       cx="185.17558"
       id="circle12182"
       style="opacity:0.3;fill:#138351;fill-opacity:1;stroke:none;stroke-width:0.86891574;stroke-linecap:square;stroke-linejoin:miter;stroke-miterlimit:4;stroke-dasharray:none;stroke-opacity:1" />
    <circle
       style="opacity:0.3;fill:#138351;fill-opacity:1;stroke:none;stroke-width:0.7185843;stroke-linecap:square;stroke-linejoin:miter;stroke-miterlimit:4;stroke-dasharray:none;stroke-opacity:1"
       id="circle12184"
       cx="183.02406"
       cy="257.52432"
       r="22.357096" />
    <circle
       r="16.744436"
       cy="258.74042"
       cx="181.80798"
       id="circle12186"
       style="opacity:0.3;fill:#138351;fill-opacity:1;stroke:none;stroke-width:0.53818655;stroke-linecap:square;stroke-linejoin:miter;stroke-miterlimit:4;stroke-dasharray:none;stroke-opacity:1" />
    <circle
       style="opacity:0.3;fill:#138351;fill-opacity:1;stroke:none;stroke-width:0.36981535;stroke-linecap:square;stroke-linejoin:miter;stroke-miterlimit:4;stroke-dasharray:none;stroke-opacity:1"
       id="circle12188"
       cx="180.5919"
       cy="259.95648"
       r="11.505954" />
    <g
       transform="translate(162.2572)"
       id="g12202">
      <path
         id="path12190"
         d="m 16.631891,280.30115 c 3.330952,0 6.032193,-2.70009 6.032193,-6.03181 v -12.11567 c -3.86e-4,-3.33057 -2.701627,-6.03181 -6.032193,-6.03181 -3.331724,0 -6.031808,2.70124 -6.031808,6.03181 v 12.11567 c -3.85e-4,3.33172 2.699699,6.03181 6.031808,6.03181 z"
         inkscape:connector-curvature="0"
         style="fill:#0000d4;fill-opacity:1;stroke-width:0.38561612" />
      <path
         id="path12192"
         d="m 25.475611,271.81721 v 2.46023 c 0,4.87727 -3.966833,8.8441 -8.844106,8.8441 -4.877273,0 -8.8441059,-3.96683 -8.8441059,-8.8441 v -2.46023 c 0,0 0.028247,-1.5875 -1.2089065,-1.5875 -1.2371533,0 -1.2089066,1.5875 -1.2089066,1.5875 v 2.46023 c 0,5.80159 4.4095204,10.59095 10.053013,11.19636 v 4.47778 H 8.7711059 c 0,0 -1.2921942,0.1356 -1.2921942,1.2091 0,1.0735 1.2921942,1.2091 1.2921942,1.2091 H 24.492676 c 0,0 1.447183,-0.0187 1.447183,-1.2091 0,-1.19043 -1.447183,-1.2091 -1.447183,-1.2091 h -6.651879 v -4.47778 c 5.643492,-0.60503 10.053013,-5.39438 10.053013,-11.19636 v -2.46023 c 0,0 -0.02303,-1.5875 -1.2091,-1.5875 -1.18607,0 -1.209099,1.5875 -1.209099,1.5875 z"
         inkscape:connector-curvature="0"
         style="fill:#000000;stroke-width:0.38561612"
         sodipodi:nodetypes="csssczcsccczcczcccsczc" />
      <g
         id="g12200">
        <rect
           style="opacity:1;fill:#ffffff;fill-opacity:1;stroke:#000000;stroke-width:0.26458332;stroke-linecap:square;stroke-linejoin:miter;stroke-miterlimit:4;stroke-dasharray:none;stroke-opacity:1"
           id="rect12194"
           width="6.8791666"
           height="2.6458333"
           x="17.578741"
           y="261.02469"
           rx="1.3229166"
           ry="1.3229166" />
        <rect
           ry="1.3229166"
           rx="1.3229166"
           y="264.72882"
           x="17.578741"
           height="2.6458333"
           width="6.8791666"
           id="rect12196"
           style="opacity:1;fill:#ffffff;fill-opacity:1;stroke:#000000;stroke-width:0.26458332;stroke-linecap:square;stroke-linejoin:miter;stroke-miterlimit:4;stroke-dasharray:none;stroke-opacity:1" />
        <rect
           style="opacity:1;fill:#ffffff;fill-opacity:1;stroke:#000000;stroke-width:0.26458332;stroke-linecap:square;stroke-linejoin:miter;stroke-miterlimit:4;stroke-dasharray:none;stroke-opacity:1"
           id="rect12198"
           width="6.8791666"
           height="2.6458333"
           x="17.578741"
           y="268.43295"
           rx="1.3229166"
           ry="1.3229166" />
      </g>
    </g>
    <rect
       y="229.08679"
       x="158.56291"
       height="67.913185"
       width="67.913185"
       id="rect12204"
       style="opacity:0.3;fill:none;fill-opacity:1;stroke:#000000;stroke-width:0.26458332;stroke-linecap:square;stroke-linejoin:miter;stroke-miterlimit:4;stroke-dasharray:none;stroke-opacity:1" />
    <g
       id="g13948"
       transform="matrix(0.85046756,0,0,0.85046756,170.46329,237.04774)">
      <path
         inkscape:connector-curvature="0"
         d="m 46.8,33.4 c -0.1,0 -0.1,0 -0.2,-0.1 -0.1,-0.1 -0.1,-0.2 -0.1,-0.3 0,-0.1 0,-1.2 0.9,-1.6 0,0 0,0 0,0 0.2,-0.1 1.2,-0.5 1.8,-0.1 0.1,0.1 -0.9,0 -0.8,0.2 0.1,0.1 1.1,0.4 1.1,0.6 0,0.1 -0.1,0.2 -0.2,0.2 l -2.3,1 c -0.1,0.1 -0.2,0.1 -0.2,0.1 z M 47.6,32 c -0.2,0.1 -0.4,0.3 -0.4,0.6 l 1.6,-0.7 c 0,0 0,0 0,0 -0.2,-0.2 -0.7,-0.1 -1.2,0.1 z"
         id="path13906" />
      <path
         inkscape:connector-curvature="0"
         d="m 46.7,32.8 -2.5,1.1 C 44,34 44,34.1 44,34.3 c 0.1,0.1 0.2,0.2 0.3,0.2 0,0 0.1,0 0.1,0 l 2.5,-1.1 C 47.1,33.3 47.1,33.1 47.1,33 47,32.8 46.8,32.7 46.7,32.8 Z"
         id="path13908" />
      <path
         inkscape:connector-curvature="0"
         d="m 46.8,33.4 c 0,0 0,0 0,0 -0.2,0 -0.3,-0.1 -0.3,-0.3 0,-0.1 0,-1.2 0.9,-1.6 0.3,-0.2 0.7,-0.2 1.2,0 0.2,0 0.3,0.2 0.2,0.4 0,0.2 -0.2,0.3 -0.4,0.2 -0.3,-0.1 -0.6,-0.1 -0.8,0 -0.5,0.2 -0.5,1.1 -0.5,1.1 0,0.1 -0.1,0.2 -0.3,0.2 z"
         id="path13910" />
      <path
         style="fill:none"
         inkscape:connector-curvature="0"
         class="st0"
         d="m 39.7,42.8 c 0.6,0.5 1.7,0.9 3.5,1 v -6.1 c -1.5,-0.1 -2.6,-0.4 -3.5,-0.8 z"
         id="path13912" />
      <path
         style="fill:none"
         inkscape:connector-curvature="0"
         class="st0"
         d="M 50.2,35.1 45,37.4 v 6 l 5.2,-2.3 v -6 c 0,0 0,0 0,0 z"
         id="path13914" />
      <path
         style="fill:none"
         inkscape:connector-curvature="0"
         class="st0"
         d="m 54.8,30.9 5.1,-2.3 c -1.5,-0.3 -2.4,-0.9 -2.8,-1.5 l -4.8,2.1 c 0.2,0 0.4,0 0.7,0.1 0.8,0.4 1.4,1 1.8,1.6 z"
         id="path13916" />
      <path
         style="fill:none"
         inkscape:connector-curvature="0"
         class="st0"
         d="m 48.4,32 c -0.3,-0.1 -0.5,-0.1 -0.7,0 v 0 c -0.2,0.1 -0.3,0 -0.4,-0.2 0,-0.1 0,-0.2 0,-0.2 L 40,34.8 c 0.5,0.4 1.7,0.9 3.9,1 l 5.9,-2.6 C 49.4,32.7 49,32.2 48.4,32 Z"
         id="path13918" />
      <path
         style="fill:none"
         inkscape:connector-curvature="0"
         class="st0"
         d="m 39.7,65.5 c 0,0.3 0.8,1.2 3.5,1.4 V 44.4 C 41.6,44.3 40.5,44 39.7,43.5 Z"
         id="path13920" />
      <polygon
         style="fill:none"
         class="st0"
         points="61.5,30.1 55.4,32.8 55.4,38.8 61.5,36 "
         id="polygon13922" />
      <path
         style="fill:none"
         inkscape:connector-curvature="0"
         class="st0"
         d="m 55.2,41.6 c -0.1,0.1 -0.2,0.1 -0.3,0 l -1.8,-1 -2.3,3 c -0.1,0.1 -0.2,0.1 -0.2,0.1 0,0 -0.1,0 -0.1,0 -0.1,0 -0.2,-0.2 -0.2,-0.3 v -1.6 l -5.2,2.3 V 66.5 L 61.6,59.2 V 36.7 l -6.2,2.8 v 1.9 c 0,0.1 -0.1,0.2 -0.2,0.2 z"
         id="path13924" />
      <path
         inkscape:connector-curvature="0"
         d="M 63,27.8 C 62.7,27.6 62.4,27.6 62.1,27.7 L 61,28.2 C 59.2,28 58.2,27.5 57.7,26.9 58,26.6 58.1,26.2 58,25.8 57.8,25.3 57.2,25.1 56.7,25.3 l -18.4,8.2 c -0.1,0 -0.2,0.1 -0.3,0.2 0,0 0,0 -0.1,0.1 -0.1,0.1 -0.1,0.1 -0.1,0.2 0,0 0,0.1 0,0.1 0,0.1 -0.1,0.2 -0.1,0.3 v 31.2 c 0,1.6 1.7,3.4 6.4,3.4 0.1,0 0.3,0 0.4,-0.1 0,0 0,0 0,0 l 18.4,-8.2 c 0.3,-0.2 0.6,-0.5 0.6,-0.9 V 28.6 c 0,-0.4 -0.2,-0.7 -0.5,-0.8 z M 43.1,67 c -2.6,-0.2 -3.5,-1.1 -3.5,-1.4 v -22 c 0.7,0.4 1.8,0.8 3.5,0.9 z m 0,-23.2 c -1.7,-0.1 -2.8,-0.5 -3.5,-1 v -5.9 c 0.8,0.4 2,0.7 3.5,0.8 z M 61.5,36 55.3,38.8 v 0.7 l 6.2,-2.8 V 59.1 L 45,66.4 V 44.1 l 5.2,-2.3 V 41.1 L 45,43.4 v -6 l 5.2,-2.3 c 0,-0.1 0,-0.3 0,-0.5 0,-0.5 -0.2,-1 -0.5,-1.4 l -5.9,2.6 c -2.2,0 -3.4,-0.5 -3.9,-1 l 7.2,-3.2 c 0,-0.1 0.1,-0.1 0.2,-0.2 0,0 0,0 0,0 l 4.3,-1.9 c 0.2,-0.1 0.4,-0.2 0.7,-0.2 l 4.8,-2.1 c 0.4,0.6 1.3,1.2 2.8,1.5 L 54.8,31 c 0.3,0.5 0.5,1 0.5,1.6 v 0.2 L 61.5,30 Z"
         id="path13926" />
      <path
         inkscape:connector-curvature="0"
         d="m 50.8,35.2 c 0,0 0,-0.2 0,-0.3 l -0.6,0.3 c 0,0 0,0 0,0 v 5.9 l 0.6,-0.3 z"
         id="path13928" />
      <path
         inkscape:connector-curvature="0"
         d="m 54.7,40.8 -1,-0.6 -1.7,0.8 -1.2,1.5 v -1 l -0.6,0.3 v 1.6 c 0,0.1 0.1,0.2 0.2,0.3 0,0 0.1,0 0.1,0 0.1,0 0.2,0 0.2,-0.1 l 2.3,-3 1.8,1 c 0.1,0.1 0.2,0.1 0.3,0 0.1,-0.1 0.2,-0.2 0.2,-0.3 v -1.9 l -0.6,0.3 z"
         id="path13930" />
      <path
         inkscape:connector-curvature="0"
         d="m 48.8,31.5 3.3,-1.4 c 0,0 0,0 0,0 0.2,-0.1 0.5,-0.1 0.8,-0.1 0.6,0.3 1.1,0.7 1.4,1.2 l 0.6,-0.3 c -0.4,-0.7 -1,-1.2 -1.8,-1.5 -0.2,-0.1 -0.5,-0.1 -0.7,-0.1 l -5.2,2.3 c 0,0.1 0,0.1 0,0.2 0.1,0.2 0.3,0.2 0.4,0.2 v 0 c 0.2,-0.1 0.4,-0.1 0.7,0 0.6,0.3 1.1,0.7 1.4,1.2 l 0.6,-0.3 C 50,32.3 49.4,31.8 48.8,31.5 Z m 3.1,-1.7 z"
         id="path13932" />
      <polygon
         points="55.4,38.8 55.4,32.8 54.7,33.1 54.7,39.1 "
         id="polygon13934" />
      <path
         inkscape:connector-curvature="0"
         d="m 51.7,29.5 -4.3,1.9 c 0,0 0,0 0,0 -0.1,0 -0.1,0.1 -0.2,0.2 l 5.2,-2.3 c -0.2,0 -0.5,0.1 -0.7,0.2 z"
         id="path13936" />
      <polygon
         points="50.8,41.5 50.8,40.8 50.2,41.1 50.2,41.8 "
         id="polygon13938" />
      <path
         inkscape:connector-curvature="0"
         d="M 50.8,34.6 C 50.8,34 50.6,33.5 50.3,33 l -0.6,0.3 c 0.3,0.4 0.4,0.9 0.5,1.4 0,0.1 0,0.4 0,0.5 l 0.6,-0.3 c 0,-0.2 0,-0.3 0,-0.3 z"
         id="path13940" />
      <polygon
         points="54.7,39.1 54.7,39.8 55.4,39.5 55.4,38.8 "
         id="polygon13942" />
      <path
         inkscape:connector-curvature="0"
         d="M 52.8,40 52,41 53.7,40.3 53.2,40 c -0.1,-0.2 -0.3,-0.1 -0.4,0 z"
         id="path13944" />
      <path
         inkscape:connector-curvature="0"
         d="m 54.7,32.6 v 0.5 l 0.6,-0.3 V 32.6 C 55.3,32 55.1,31.5 54.8,31 l -0.6,0.3 c 0.3,0.3 0.5,0.8 0.5,1.3 z"
         id="path13946" />
    </g>
    <text
       transform="matrix(-0.7885816,0.42743873,-0.00919092,1.2730814,0,0)"
       id="text14020"
       y="317.4151"
       x="-283.04251"
       style="font-style:normal;font-weight:normal;font-size:12.7417345px;line-height:1.25;font-family:sans-serif;letter-spacing:0px;word-spacing:0px;fill:#000000;fill-opacity:1;stroke:none;stroke-width:0.31854331"
       xml:space="preserve"><tspan
         style="font-style:normal;font-variant:normal;font-weight:normal;font-stretch:normal;font-family:'EB Garamond';-inkscape-font-specification:'EB Garamond';stroke-width:0.31854331"
         y="317.4151"
         x="-283.04251"
         id="tspan14018"
         sodipodi:role="line">W</tspan></text>
    <circle
       style="opacity:0.3;fill:#138351;fill-opacity:1;stroke:none;stroke-width:0.86891574;stroke-linecap:square;stroke-linejoin:miter;stroke-miterlimit:4;stroke-dasharray:none;stroke-opacity:1"
       id="circle14022"
       cx="306.88388"
       cy="256.30826"
       r="27.034311" />
    <circle
       r="22.357096"
       cy="257.52432"
       cx="304.73236"
       id="circle14024"
       style="opacity:0.3;fill:#138351;fill-opacity:1;stroke:none;stroke-width:0.7185843;stroke-linecap:square;stroke-linejoin:miter;stroke-miterlimit:4;stroke-dasharray:none;stroke-opacity:1" />
    <circle
       style="opacity:0.3;fill:#138351;fill-opacity:1;stroke:none;stroke-width:0.53818655;stroke-linecap:square;stroke-linejoin:miter;stroke-miterlimit:4;stroke-dasharray:none;stroke-opacity:1"
       id="circle14026"
       cx="303.5163"
       cy="258.74042"
       r="16.744436" />
    <circle
       r="11.505954"
       cy="259.95648"
       cx="302.30023"
       id="circle14028"
       style="opacity:0.3;fill:#138351;fill-opacity:1;stroke:none;stroke-width:0.36981535;stroke-linecap:square;stroke-linejoin:miter;stroke-miterlimit:4;stroke-dasharray:none;stroke-opacity:1" />
    <g
       id="g14042"
       transform="translate(283.96561)">
      <path
         style="fill:#0000d4;fill-opacity:1;stroke-width:0.38561612"
         inkscape:connector-curvature="0"
         d="m 16.631891,280.30115 c 3.330952,0 6.032193,-2.70009 6.032193,-6.03181 v -12.11567 c -3.86e-4,-3.33057 -2.701627,-6.03181 -6.032193,-6.03181 -3.331724,0 -6.031808,2.70124 -6.031808,6.03181 v 12.11567 c -3.85e-4,3.33172 2.699699,6.03181 6.031808,6.03181 z"
         id="path14030" />
      <path
         sodipodi:nodetypes="csssczcsccczcczcccsczc"
         style="fill:#000000;stroke-width:0.38561612"
         inkscape:connector-curvature="0"
         d="m 25.475611,271.81721 v 2.46023 c 0,4.87727 -3.966833,8.8441 -8.844106,8.8441 -4.877273,0 -8.8441059,-3.96683 -8.8441059,-8.8441 v -2.46023 c 0,0 0.028247,-1.5875 -1.2089065,-1.5875 -1.2371533,0 -1.2089066,1.5875 -1.2089066,1.5875 v 2.46023 c 0,5.80159 4.4095204,10.59095 10.053013,11.19636 v 4.47778 H 8.7711059 c 0,0 -1.2921942,0.1356 -1.2921942,1.2091 0,1.0735 1.2921942,1.2091 1.2921942,1.2091 H 24.492676 c 0,0 1.447183,-0.0187 1.447183,-1.2091 0,-1.19043 -1.447183,-1.2091 -1.447183,-1.2091 h -6.651879 v -4.47778 c 5.643492,-0.60503 10.053013,-5.39438 10.053013,-11.19636 v -2.46023 c 0,0 -0.02303,-1.5875 -1.2091,-1.5875 -1.18607,0 -1.209099,1.5875 -1.209099,1.5875 z"
         id="path14032" />
      <g
         id="g14040">
        <rect
           ry="1.3229166"
           rx="1.3229166"
           y="261.02469"
           x="17.578741"
           height="2.6458333"
           width="6.8791666"
           id="rect14034"
           style="opacity:1;fill:#ffffff;fill-opacity:1;stroke:#000000;stroke-width:0.26458332;stroke-linecap:square;stroke-linejoin:miter;stroke-miterlimit:4;stroke-dasharray:none;stroke-opacity:1" />
        <rect
           style="opacity:1;fill:#ffffff;fill-opacity:1;stroke:#000000;stroke-width:0.26458332;stroke-linecap:square;stroke-linejoin:miter;stroke-miterlimit:4;stroke-dasharray:none;stroke-opacity:1"
           id="rect14036"
           width="6.8791666"
           height="2.6458333"
           x="17.578741"
           y="264.72882"
           rx="1.3229166"
           ry="1.3229166" />
        <rect
           ry="1.3229166"
           rx="1.3229166"
           y="268.43295"
           x="17.578741"
           height="2.6458333"
           width="6.8791666"
           id="rect14038"
           style="opacity:1;fill:#ffffff;fill-opacity:1;stroke:#000000;stroke-width:0.26458332;stroke-linecap:square;stroke-linejoin:miter;stroke-miterlimit:4;stroke-dasharray:none;stroke-opacity:1" />
      </g>
    </g>
    <text
       xml:space="preserve"
       style="font-style:normal;font-weight:normal;font-size:10.55152512px;line-height:1.25;font-family:sans-serif;letter-spacing:0px;word-spacing:0px;fill:#000000;fill-opacity:1;stroke:none;stroke-width:0.26378807"
       x="-102.64632"
       y="371.27249"
       id="text14090"
       transform="matrix(0.76092526,-0.47139418,1.101992,0.63150404,0,0)"><tspan
         sodipodi:role="line"
         id="tspan14088"
         x="-102.64632"
         y="371.27249"
         style="font-style:normal;font-variant:normal;font-weight:normal;font-stretch:normal;font-family:'EB Garamond';-inkscape-font-specification:'EB Garamond';stroke-width:0.26378807">W</tspan></text>
    <rect
       style="opacity:0.3;fill:none;fill-opacity:1;stroke:#000000;stroke-width:0.26458332;stroke-linecap:square;stroke-linejoin:miter;stroke-miterlimit:4;stroke-dasharray:none;stroke-opacity:1"
       id="rect14092"
       width="67.913185"
       height="67.913185"
       x="280.2713"
       y="229.08679" />
    <g
       transform="matrix(0.72578504,0,0,0.72578504,291.63581,243.79316)"
       id="g14098">
      <path
         id="path14094"
         d="m 36.6,46.9 19.5,8.7 c 0,0 0.1,0 0.1,0 0.1,0 0.2,-0.1 0.3,-0.2 0.1,-0.2 0,-0.3 -0.2,-0.4 L 36.8,46.3 c -0.2,-0.1 -0.3,0 -0.4,0.2 -0.1,0.1 0,0.3 0.2,0.4 z"
         inkscape:connector-curvature="0" />
      <path
         id="path14096"
         d="m 74.3,54.5 -0.2,0.1 C 73.4,54 73,53.1 73,52.2 c 0,-0.5 0.1,-1 0.3,-1.4 L 75.1,50 c 0.3,-0.2 0.6,-0.5 0.6,-0.9 0,-0.4 -0.2,-0.7 -0.6,-0.9 l -24.5,-11 c -0.3,-0.1 -0.5,-0.1 -0.8,0 l -18.9,8.6 c 0,0 0,0 -0.1,0 -1.6,0.7 -2.6,2.3 -2.6,4.1 0,1.8 1,3.3 2.6,4.1 l 24.5,10.9 c 0,0 0,0 0,0 0.1,0 0.2,0.1 0.3,0.1 0,0 0,0 0,0 0,0 0,0 0,0 0,0 0,0 0,0 0,0 0,0 0,0 0.1,0 0.2,0 0.4,-0.1 0,0 0,0 0,0 l 4.8,-2.2 v 8.2 c 0,0.1 0.1,0.2 0.2,0.3 0,0 0.1,0 0.1,0 0.1,0 0.2,0 0.2,-0.1 l 2.3,-3 1.8,1 c 0.1,0.1 0.2,0.1 0.3,0 0.1,-0.1 0.2,-0.2 0.2,-0.3 V 60.3 L 75,56.2 c 0.5,-0.2 0.7,-0.8 0.5,-1.3 -0.1,-0.4 -0.7,-0.6 -1.2,-0.4 z m -0.8,0.4 -7.9,3.6 C 65.3,58 64.9,57.6 64.4,57.2 l 2,-0.9 c 0.2,-0.1 0.2,-0.3 0.2,-0.4 -0.1,-0.2 -0.3,-0.2 -0.4,-0.2 l -2.6,1.1 -4.5,2 -2.5,1.2 c -0.2,0.1 -0.2,0.3 -0.2,0.4 0.1,0.1 0.2,0.2 0.3,0.2 0,0 0.1,0 0.1,0 l 2.3,-1 c 0.6,0.3 1,0.7 1.3,1.2 L 55.7,63 c -0.7,-0.5 -1.2,-1.2 -1.2,-2.1 0,-1 0.5,-1.8 1.4,-2.3 0,0 0,0 0.1,0 l 16.4,-7.4 c -0.1,0.3 -0.1,0.7 -0.1,1.1 0.1,0.9 0.5,1.9 1.2,2.6 z M 50.2,39.2 72.4,49.1 55.8,56.7 33.6,46.8 Z m -19,8.6 22.6,10.1 c -0.7,0.8 -1.1,1.8 -1.1,3 0,0.3 0,0.5 0.1,0.8 L 31.6,52.3 C 30.7,51.9 30.1,51 30.1,50 c 0,-1 0.4,-1.7 1.1,-2.2 z"
         inkscape:connector-curvature="0" />
    </g>
    <path
       style="opacity:1;fill:none;fill-opacity:1;stroke:#333333;stroke-width:3.96875;stroke-linecap:round;stroke-linejoin:miter;stroke-miterlimit:4;stroke-dasharray:none;stroke-opacity:1"
       id="circle14102"
       sodipodi:type="arc"
       sodipodi:cx="602.65778"
       sodipodi:cy="-187.71724"
       sodipodi:rx="22.357096"
       sodipodi:ry="22.357096"
       sodipodi:start="0"
       sodipodi:end="3.1415927"
       sodipodi:open="true"
       d="m 625.01487,-187.71724 a 22.357096,22.357096 0 0 1 -11.17855,19.36181 22.357096,22.357096 0 0 1 -22.35709,0 22.357096,22.357096 0 0 1 -11.17855,-19.36181"
       transform="scale(1,-1)" />
    <path
       id="circle14104"
       style="opacity:1;fill:none;fill-opacity:1;stroke:#333333;stroke-width:3.96875;stroke-linecap:round;stroke-linejoin:miter;stroke-miterlimit:4;stroke-dasharray:none;stroke-opacity:1"
       sodipodi:type="arc"
       sodipodi:cx="409.64313"
       sodipodi:cy="-259.60693"
       sodipodi:rx="16.744436"
       sodipodi:ry="16.744436"
       sodipodi:start="0"
       sodipodi:end="3.1415927"
       sodipodi:open="true"
       d="m 426.38756,-259.60693 a 16.744436,16.744436 0 0 1 -8.37221,14.5011 16.744436,16.744436 0 0 1 -16.74444,0 16.744436,16.744436 0 0 1 -8.37222,-14.5011"
       transform="scale(1,-1)" />
    <path
       style="opacity:1;fill:none;fill-opacity:1;stroke:#333333;stroke-width:3.96875;stroke-linecap:round;stroke-linejoin:miter;stroke-miterlimit:4;stroke-dasharray:none;stroke-opacity:1"
       id="circle14106"
       sodipodi:type="arc"
       sodipodi:cx="409.64313"
       sodipodi:cy="-259.42377"
       sodipodi:rx="11.505954"
       sodipodi:ry="11.505954"
       sodipodi:start="0"
       sodipodi:end="3.1415927"
       sodipodi:open="true"
       d="m 421.14908,-259.42377 a 11.505954,11.505954 0 0 1 -5.75298,9.96445 11.505954,11.505954 0 0 1 -11.50595,0 11.505954,11.505954 0 0 1 -5.75298,-9.96445"
       transform="scale(1,-1)" />
    <g
       transform="translate(392.47704,4.4282106)"
       id="g14120">
      <path
         id="path14108"
         d="m 16.631891,280.30115 c 3.330952,0 6.032193,-2.70009 6.032193,-6.03181 v -12.11567 c -3.86e-4,-3.33057 -2.701627,-6.03181 -6.032193,-6.03181 -3.331724,0 -6.031808,2.70124 -6.031808,6.03181 v 12.11567 c -3.85e-4,3.33172 2.699699,6.03181 6.031808,6.03181 z"
         inkscape:connector-curvature="0"
         style="fill:#0000d4;fill-opacity:1;stroke-width:0.38561612" />
      <path
         id="path14110"
         d="m 25.475611,271.81721 v 2.46023 c 0,4.87727 -3.966833,8.8441 -8.844106,8.8441 -4.877273,0 -8.8441059,-3.96683 -8.8441059,-8.8441 v -2.46023 c 0,0 0.028247,-1.5875 -1.2089065,-1.5875 -1.2371533,0 -1.2089066,1.5875 -1.2089066,1.5875 v 2.46023 c 0,5.80159 4.4095204,10.59095 10.053013,11.19636 v 4.47778 H 8.7711059 c 0,0 -1.2921942,0.1356 -1.2921942,1.2091 0,1.0735 1.2921942,1.2091 1.2921942,1.2091 H 24.492676 c 0,0 1.447183,-0.0187 1.447183,-1.2091 0,-1.19043 -1.447183,-1.2091 -1.447183,-1.2091 h -6.651879 v -4.47778 c 5.643492,-0.60503 10.053013,-5.39438 10.053013,-11.19636 v -2.46023 c 0,0 -0.02303,-1.5875 -1.2091,-1.5875 -1.18607,0 -1.209099,1.5875 -1.209099,1.5875 z"
         inkscape:connector-curvature="0"
         style="fill:#000000;stroke-width:0.38561612"
         sodipodi:nodetypes="csssczcsccczcczcccsczc" />
      <g
         id="g14118">
        <rect
           style="opacity:1;fill:#cccccc;fill-opacity:1;stroke:#000000;stroke-width:0.26458332;stroke-linecap:square;stroke-linejoin:miter;stroke-miterlimit:4;stroke-dasharray:none;stroke-opacity:1"
           id="rect14112"
           width="6.8791666"
           height="2.6458333"
           x="17.578741"
           y="261.02469"
           rx="1.3229166"
           ry="1.3229166" />
        <rect
           ry="1.3229166"
           rx="1.3229166"
           y="264.72882"
           x="17.578741"
           height="2.6458333"
           width="6.8791666"
           id="rect14114"
           style="opacity:1;fill:#cccccc;fill-opacity:1;stroke:#000000;stroke-width:0.26458332;stroke-linecap:square;stroke-linejoin:miter;stroke-miterlimit:4;stroke-dasharray:none;stroke-opacity:1" />
        <rect
           style="opacity:1;fill:#cccccc;fill-opacity:1;stroke:#000000;stroke-width:0.26458332;stroke-linecap:square;stroke-linejoin:miter;stroke-miterlimit:4;stroke-dasharray:none;stroke-opacity:1"
           id="rect14116"
           width="6.8791666"
           height="2.6458333"
           x="17.578741"
           y="268.43295"
           rx="1.3229166"
           ry="1.3229166" />
      </g>
    </g>
    <rect
       y="229.08679"
       x="375.68652"
       height="67.913185"
       width="67.913185"
       id="rect14126"
       style="opacity:0.3;fill:none;fill-opacity:1;stroke:#000000;stroke-width:0.26458332;stroke-linecap:square;stroke-linejoin:miter;stroke-miterlimit:4;stroke-dasharray:none;stroke-opacity:1" />
    <g
       id="g14145"
       transform="translate(38.761458,-106.23788)">
      <text
         xml:space="preserve"
         style="font-style:normal;font-weight:normal;font-size:10.55152512px;line-height:1.25;font-family:sans-serif;letter-spacing:0px;word-spacing:0px;fill:#000000;fill-opacity:1;stroke:none;stroke-width:0.26378807"
         x="-6.8049707"
         y="469.77402"
         id="text14124"
         transform="matrix(0.76092526,-0.47139418,1.101992,0.63150404,0,0)"><tspan
           sodipodi:role="line"
           id="tspan14122"
           x="-6.8049707"
           y="469.77402"
           style="font-style:normal;font-variant:normal;font-weight:normal;font-stretch:normal;font-family:'EB Garamond';-inkscape-font-specification:'EB Garamond';stroke-width:0.26378807">W</tspan></text>
      <g
         transform="matrix(0.72578504,0,0,0.72578504,473.11182,260.81823)"
         id="g14132">
        <path
           id="path14128"
           d="m 36.6,46.9 19.5,8.7 c 0,0 0.1,0 0.1,0 0.1,0 0.2,-0.1 0.3,-0.2 0.1,-0.2 0,-0.3 -0.2,-0.4 L 36.8,46.3 c -0.2,-0.1 -0.3,0 -0.4,0.2 -0.1,0.1 0,0.3 0.2,0.4 z"
           inkscape:connector-curvature="0" />
        <path
           id="path14130"
           d="m 74.3,54.5 -0.2,0.1 C 73.4,54 73,53.1 73,52.2 c 0,-0.5 0.1,-1 0.3,-1.4 L 75.1,50 c 0.3,-0.2 0.6,-0.5 0.6,-0.9 0,-0.4 -0.2,-0.7 -0.6,-0.9 l -24.5,-11 c -0.3,-0.1 -0.5,-0.1 -0.8,0 l -18.9,8.6 c 0,0 0,0 -0.1,0 -1.6,0.7 -2.6,2.3 -2.6,4.1 0,1.8 1,3.3 2.6,4.1 l 24.5,10.9 c 0,0 0,0 0,0 0.1,0 0.2,0.1 0.3,0.1 0,0 0,0 0,0 0,0 0,0 0,0 0,0 0,0 0,0 0,0 0,0 0,0 0.1,0 0.2,0 0.4,-0.1 0,0 0,0 0,0 l 4.8,-2.2 v 8.2 c 0,0.1 0.1,0.2 0.2,0.3 0,0 0.1,0 0.1,0 0.1,0 0.2,0 0.2,-0.1 l 2.3,-3 1.8,1 c 0.1,0.1 0.2,0.1 0.3,0 0.1,-0.1 0.2,-0.2 0.2,-0.3 V 60.3 L 75,56.2 c 0.5,-0.2 0.7,-0.8 0.5,-1.3 -0.1,-0.4 -0.7,-0.6 -1.2,-0.4 z m -0.8,0.4 -7.9,3.6 C 65.3,58 64.9,57.6 64.4,57.2 l 2,-0.9 c 0.2,-0.1 0.2,-0.3 0.2,-0.4 -0.1,-0.2 -0.3,-0.2 -0.4,-0.2 l -2.6,1.1 -4.5,2 -2.5,1.2 c -0.2,0.1 -0.2,0.3 -0.2,0.4 0.1,0.1 0.2,0.2 0.3,0.2 0,0 0.1,0 0.1,0 l 2.3,-1 c 0.6,0.3 1,0.7 1.3,1.2 L 55.7,63 c -0.7,-0.5 -1.2,-1.2 -1.2,-2.1 0,-1 0.5,-1.8 1.4,-2.3 0,0 0,0 0.1,0 l 16.4,-7.4 c -0.1,0.3 -0.1,0.7 -0.1,1.1 0.1,0.9 0.5,1.9 1.2,2.6 z M 50.2,39.2 72.4,49.1 55.8,56.7 33.6,46.8 Z m -19,8.6 22.6,10.1 c -0.7,0.8 -1.1,1.8 -1.1,3 0,0.3 0,0.5 0.1,0.8 L 31.6,52.3 C 30.7,51.9 30.1,51 30.1,50 c 0,-1 0.4,-1.7 1.1,-2.2 z"
           inkscape:connector-curvature="0" />
      </g>
    </g>
    <path
       style="color:#000000;font-style:normal;font-variant:normal;font-weight:normal;font-stretch:normal;font-size:medium;line-height:normal;font-family:sans-serif;font-variant-ligatures:normal;font-variant-position:normal;font-variant-caps:normal;font-variant-numeric:normal;font-variant-alternates:normal;font-feature-settings:normal;text-indent:0;text-align:start;text-decoration:none;text-decoration-line:none;text-decoration-style:solid;text-decoration-color:#000000;letter-spacing:normal;word-spacing:normal;text-transform:none;writing-mode:lr-tb;direction:ltr;text-orientation:mixed;dominant-baseline:auto;baseline-shift:baseline;text-anchor:start;white-space:normal;shape-padding:0;clip-rule:nonzero;display:inline;overflow:visible;visibility:visible;opacity:1;isolation:auto;mix-blend-mode:normal;color-interpolation:sRGB;color-interpolation-filters:linearRGB;solid-color:#000000;solid-opacity:1;vector-effect:none;fill:#1a1a1a;fill-opacity:1;fill-rule:nonzero;stroke:none;stroke-width:2.41989541;stroke-linecap:round;stroke-linejoin:miter;stroke-miterlimit:4;stroke-dasharray:none;stroke-dashoffset:0;stroke-opacity:1;marker:none;paint-order:markers fill stroke;color-rendering:auto;image-rendering:auto;shape-rendering:auto;text-rendering:auto;enable-background:accumulate"
       d="m 501.52446,229.28409 c -18.72174,0 -33.9226,15.20086 -33.9226,33.9226 0,18.72174 15.20086,33.92557 33.9226,33.92557 18.72174,0 33.92557,-15.20383 33.92557,-33.92557 0,-18.72174 -15.20383,-33.9226 -33.92557,-33.9226 z m 0,2.41752 c 17.41393,0 31.50508,14.09115 31.50508,31.50508 0,17.41395 -14.09115,31.50509 -31.50508,31.50509 -17.41393,0 -31.50509,-14.09114 -31.50509,-31.50509 0,-17.41393 14.09116,-31.50508 31.50509,-31.50508 z"
       id="path5661"
       inkscape:connector-curvature="0" />
    <path
       style="color:#000000;font-style:normal;font-variant:normal;font-weight:normal;font-stretch:normal;font-size:medium;line-height:normal;font-family:sans-serif;font-variant-ligatures:normal;font-variant-position:normal;font-variant-caps:normal;font-variant-numeric:normal;font-variant-alternates:normal;font-feature-settings:normal;text-indent:0;text-align:start;text-decoration:none;text-decoration-line:none;text-decoration-style:solid;text-decoration-color:#000000;letter-spacing:normal;word-spacing:normal;text-transform:none;writing-mode:lr-tb;direction:ltr;text-orientation:mixed;dominant-baseline:auto;baseline-shift:baseline;text-anchor:start;white-space:normal;shape-padding:0;clip-rule:nonzero;display:inline;overflow:visible;visibility:visible;opacity:1;isolation:auto;mix-blend-mode:normal;color-interpolation:sRGB;color-interpolation-filters:linearRGB;solid-color:#000000;solid-opacity:1;vector-effect:none;fill:#1a1a1a;fill-opacity:1;fill-rule:nonzero;stroke:none;stroke-width:2.01657915;stroke-linecap:round;stroke-linejoin:miter;stroke-miterlimit:4;stroke-dasharray:none;stroke-dashoffset:0;stroke-opacity:1;marker:none;paint-order:markers fill stroke;color-rendering:auto;image-rendering:auto;shape-rendering:auto;text-rendering:auto;enable-background:accumulate"
       d="m 485.18886,258.72757 c -4.48869,0 -8.81966,0.66743 -12.91653,1.88321 a 29.383202,29.383202 0 0 0 -0.12951,2.59651 29.383202,29.383202 0 0 0 0.0343,0.97141 c 4.09785,-1.33012 8.46736,-2.06055 13.01181,-2.06055 3.23573,0 6.38356,0.36887 9.40816,1.05872 1.46588,-0.83398 2.98122,-1.58974 4.53932,-2.26566 -4.39596,-1.41764 -9.08293,-2.18364 -13.94748,-2.18364 z m 0,4.61076 c -4.52784,0 -8.88103,0.7476 -12.9536,2.11085 a 29.383202,29.383202 0 0 0 0.4844,3.41971 c 3.90133,-1.37592 8.09333,-2.1386 12.4692,-2.13867 1.28465,0 2.55244,0.0685 3.8035,0.19462 1.30001,-1.00865 2.65338,-1.9522 4.05627,-2.82289 -2.54426,-0.49722 -5.17089,-0.76358 -7.85977,-0.76358 z m 0,4.55253 c -4.28572,0 -8.39237,0.75943 -12.21115,2.12813 a 29.383202,29.383202 0 0 0 0.96346,3.23966 c 3.18218,-1.15482 6.59096,-1.83694 10.1466,-1.95472 1.13943,-1.16917 2.33985,-2.27784 3.59442,-3.32439 -0.82436,-0.0561 -1.65489,-0.0887 -2.49333,-0.0887 z m -2.16111,4.538 c -3.03681,0.20592 -5.95897,0.83482 -8.70545,1.83297 a 29.383202,29.383202 0 0 0 1.47032,3.06499 c 1.32738,-0.46292 2.69931,-0.83284 4.10787,-1.09843 0.97626,-1.32151 2.02143,-2.58838 3.12726,-3.79953 z m -4.07482,5.12957 c -0.88262,0.20744 -1.74822,0.45946 -2.59653,0.74905 a 29.383202,29.383202 0 0 0 1.06931,1.64898 c 0.48824,-0.81369 0.99139,-1.61773 1.52722,-2.39803 z"
       id="path5614"
       inkscape:connector-curvature="0" />
    <path
       style="color:#000000;font-style:normal;font-variant:normal;font-weight:normal;font-stretch:normal;font-size:medium;line-height:normal;font-family:sans-serif;font-variant-ligatures:normal;font-variant-position:normal;font-variant-caps:normal;font-variant-numeric:normal;font-variant-alternates:normal;font-feature-settings:normal;text-indent:0;text-align:start;text-decoration:none;text-decoration-line:none;text-decoration-style:solid;text-decoration-color:#000000;letter-spacing:normal;word-spacing:normal;text-transform:none;writing-mode:lr-tb;direction:ltr;text-orientation:mixed;dominant-baseline:auto;baseline-shift:baseline;text-anchor:start;white-space:normal;shape-padding:0;clip-rule:nonzero;display:inline;overflow:visible;visibility:visible;opacity:1;isolation:auto;mix-blend-mode:normal;color-interpolation:sRGB;color-interpolation-filters:linearRGB;solid-color:#000000;solid-opacity:1;vector-effect:none;fill:#1a1a1a;fill-opacity:1;fill-rule:nonzero;stroke:none;stroke-width:2.01657915;stroke-linecap:round;stroke-linejoin:miter;stroke-miterlimit:4;stroke-dasharray:none;stroke-dashoffset:0;stroke-opacity:1;marker:none;paint-order:markers fill stroke;color-rendering:auto;image-rendering:auto;shape-rendering:auto;text-rendering:auto;enable-background:accumulate"
       d="m 517.86665,258.72757 c -16.80867,0 -31.50019,9.1456 -39.37295,22.72434 a 29.383202,29.383202 0 0 0 2.39803,2.64151 c 7.13047,-13.09386 20.99982,-21.97527 36.97492,-21.97527 4.5383,0 8.90032,0.7299 12.99328,2.05659 a 29.383202,29.383202 0 0 0 0.0489,-0.96745 29.383202,29.383202 0 0 0 -0.13742,-2.60182 c -4.09309,-1.2134 -8.42028,-1.8779 -12.90465,-1.8779 z m 0,4.61076 c -15.59241,0 -29.15291,8.76331 -36.0419,21.62329 a 29.383202,29.383202 0 0 0 2.6733,2.16512 c 6.20584,-12.11422 18.80595,-20.39645 33.3686,-20.39652 4.38091,7e-5 8.57735,0.76371 12.48244,2.14268 a 29.383202,29.383202 0 0 0 0.44729,-3.43165 c -4.06569,-1.35844 -8.41031,-2.10292 -12.92973,-2.10292 z m 0,4.55253 c -14.13031,0 -26.3853,8.10125 -32.38664,19.90288 a 29.383202,29.383202 0 0 0 2.9393,1.67413 c 5.40199,-10.78925 16.54514,-18.19041 29.44734,-18.19035 3.94822,0 7.72652,0.70416 11.2318,1.97584 a 29.383202,29.383202 0 0 0 0.97536,-3.23437 c -3.8176,-1.36799 -7.92268,-2.12813 -12.20716,-2.12813 z m 0,4.45595 c -12.4466,0 -23.2335,7.16781 -28.4746,17.59082 a 29.383202,29.383202 0 0 0 3.15633,1.23349 c 4.7249,-9.17176 14.27542,-15.43771 25.31827,-15.43764 3.30417,0 6.47196,0.56735 9.42003,1.59998 a 29.383202,29.383202 0 0 0 1.44256,-3.06636 c -3.39242,-1.23517 -7.04689,-1.92029 -10.86259,-1.92029 z m 0,4.48774 c -10.50432,0 -19.63556,5.94761 -24.22382,14.64888 a 29.383202,29.383202 0 0 0 3.45281,0.73448 c 4.14136,-7.17282 11.87811,-11.99813 20.77101,-11.99813 2.37723,0 4.66934,0.35061 6.83542,0.99261 a 29.383202,29.383202 0 0 0 1.99173,-2.91153 c -2.77073,-0.94782 -5.73884,-1.46637 -8.82715,-1.46631 z m 0,4.35663 c -8.36509,0 -15.69289,4.49203 -19.72156,11.18549 a 29.383202,29.383202 0 0 0 3.38001,0.21437 29.383202,29.383202 0 0 0 0.536,-0.0188 c 3.56974,-4.8463 9.30912,-7.99081 15.80555,-7.99081 1.17574,0 2.3243,0.11088 3.44219,0.30838 a 29.383202,29.383202 0 0 0 2.75667,-2.84004 c -1.97362,-0.55531 -4.05006,-0.85947 -6.19886,-0.85947 z m 0,4.3117 c -5.89236,0 -11.14971,2.7504 -14.5801,7.02606 a 29.383202,29.383202 0 0 0 5.93423,-0.97277 c 1.80639,-1.23468 3.89344,-2.08962 6.14724,-2.45752 a 29.383202,29.383202 0 0 0 5.03558,-3.41314 c -0.83029,-0.11521 -1.67557,-0.1826 -2.53695,-0.1826 z"
       id="path5659"
       inkscape:connector-curvature="0" />
    <rect
       style="opacity:0.3;fill:none;fill-opacity:1;stroke:#000000;stroke-width:0.26458332;stroke-linecap:square;stroke-linejoin:miter;stroke-miterlimit:4;stroke-dasharray:none;stroke-opacity:1"
       id="rect14191"
       width="67.913185"
       height="67.913185"
       x="375.68652"
       y="229.08679" />
    <rect
       y="229.08679"
       x="467.73416"
       height="67.913185"
       width="67.913185"
       id="rect14193"
       style="opacity:0.3;fill:none;fill-opacity:1;stroke:#000000;stroke-width:0.26458332;stroke-linecap:square;stroke-linejoin:miter;stroke-miterlimit:4;stroke-dasharray:none;stroke-opacity:1" />
    <text
       id="text14219"
       y="284.71265"
       x="467.29852"
       style="font-style:normal;font-weight:normal;font-size:75.24046326px;line-height:1.25;font-family:sans-serif;letter-spacing:0px;word-spacing:0px;opacity:1;fill:#000000;fill-opacity:1;stroke:#fcfcfc;stroke-width:1.88101172;stroke-opacity:1"
       xml:space="preserve"><tspan
         style="font-style:normal;font-variant:normal;font-weight:normal;font-stretch:normal;font-family:'EB Garamond';-inkscape-font-specification:'EB Garamond';stroke:#fcfcfc;stroke-width:1.88101172;stroke-opacity:1"
         y="284.71265"
         x="467.29852"
         id="tspan14217"
         sodipodi:role="line">W</tspan></text>
    <rect
       style="opacity:0.3;fill:none;fill-opacity:1;stroke:#000000;stroke-width:0.26458332;stroke-linecap:square;stroke-linejoin:miter;stroke-miterlimit:4;stroke-dasharray:none;stroke-opacity:1"
       id="rect14266"
       width="67.913185"
       height="67.913185"
       x="579.05194"
       y="229.08679" />
    <g
       id="g959">
      <path
         style="color:#000000;font-style:normal;font-variant:normal;font-weight:normal;font-stretch:normal;font-size:medium;line-height:normal;font-family:sans-serif;font-variant-ligatures:normal;font-variant-position:normal;font-variant-caps:normal;font-variant-numeric:normal;font-variant-alternates:normal;font-feature-settings:normal;text-indent:0;text-align:start;text-decoration:none;text-decoration-line:none;text-decoration-style:solid;text-decoration-color:#000000;letter-spacing:normal;word-spacing:normal;text-transform:none;writing-mode:lr-tb;direction:ltr;text-orientation:mixed;dominant-baseline:auto;baseline-shift:baseline;text-anchor:start;white-space:normal;shape-padding:0;clip-rule:nonzero;display:inline;overflow:visible;visibility:visible;opacity:1;isolation:auto;mix-blend-mode:normal;color-interpolation:sRGB;color-interpolation-filters:linearRGB;solid-color:#000000;solid-opacity:1;vector-effect:none;fill:#1a1a1a;fill-opacity:1;fill-rule:nonzero;stroke:none;stroke-width:2.41989541;stroke-linecap:round;stroke-linejoin:miter;stroke-miterlimit:4;stroke-dasharray:none;stroke-dashoffset:0;stroke-opacity:1;marker:none;paint-order:markers fill stroke;color-rendering:auto;image-rendering:auto;shape-rendering:auto;text-rendering:auto;enable-background:accumulate"
         d="m 612.84222,229.28409 c -18.72174,0 -33.9226,15.20086 -33.9226,33.9226 0,18.72174 15.20086,33.92557 33.9226,33.92557 18.72174,0 33.92557,-15.20383 33.92557,-33.92557 0,-18.72174 -15.20383,-33.9226 -33.92557,-33.9226 z m 0,2.41752 c 17.41393,0 31.50508,14.09115 31.50508,31.50508 0,17.41395 -14.09115,31.50509 -31.50508,31.50509 -17.41393,0 -31.50509,-14.09114 -31.50509,-31.50509 0,-17.41393 14.09116,-31.50508 31.50509,-31.50508 z"
         id="path14260"
         inkscape:connector-curvature="0" />
      <path
         style="color:#000000;font-style:normal;font-variant:normal;font-weight:normal;font-stretch:normal;font-size:medium;line-height:normal;font-family:sans-serif;font-variant-ligatures:normal;font-variant-position:normal;font-variant-caps:normal;font-variant-numeric:normal;font-variant-alternates:normal;font-feature-settings:normal;text-indent:0;text-align:start;text-decoration:none;text-decoration-line:none;text-decoration-style:solid;text-decoration-color:#000000;letter-spacing:normal;word-spacing:normal;text-transform:none;writing-mode:lr-tb;direction:ltr;text-orientation:mixed;dominant-baseline:auto;baseline-shift:baseline;text-anchor:start;white-space:normal;shape-padding:0;clip-rule:nonzero;display:inline;overflow:visible;visibility:visible;opacity:1;isolation:auto;mix-blend-mode:normal;color-interpolation:sRGB;color-interpolation-filters:linearRGB;solid-color:#000000;solid-opacity:1;vector-effect:none;fill:#1a1a1a;fill-opacity:1;fill-rule:nonzero;stroke:none;stroke-width:2.01657915;stroke-linecap:round;stroke-linejoin:miter;stroke-miterlimit:4;stroke-dasharray:none;stroke-dashoffset:0;stroke-opacity:1;marker:none;paint-order:markers fill stroke;color-rendering:auto;image-rendering:auto;shape-rendering:auto;text-rendering:auto;enable-background:accumulate"
         d="m 596.50662,258.72757 c -4.48869,0 -8.81966,0.66743 -12.91653,1.88321 a 29.383202,29.383202 0 0 0 -0.12951,2.59651 29.383202,29.383202 0 0 0 0.0343,0.97141 c 4.09785,-1.33012 8.46736,-2.06055 13.01181,-2.06055 3.23573,0 6.38356,0.36887 9.40816,1.05872 1.46588,-0.83398 2.98122,-1.58974 4.53932,-2.26566 -4.39596,-1.41764 -9.08293,-2.18364 -13.94748,-2.18364 z m 0,4.61076 c -4.52784,0 -8.88103,0.7476 -12.9536,2.11085 a 29.383202,29.383202 0 0 0 0.4844,3.41971 c 3.90133,-1.37592 8.09333,-2.1386 12.4692,-2.13867 1.28465,0 2.55244,0.0685 3.8035,0.19462 1.30001,-1.00865 2.65338,-1.9522 4.05627,-2.82289 -2.54426,-0.49722 -5.17089,-0.76358 -7.85977,-0.76358 z m 0,4.55253 c -4.28572,0 -8.39237,0.75943 -12.21115,2.12813 a 29.383202,29.383202 0 0 0 0.96346,3.23966 c 3.18218,-1.15482 6.59096,-1.83694 10.1466,-1.95472 1.13943,-1.16917 2.33985,-2.27784 3.59442,-3.32439 -0.82436,-0.0561 -1.65489,-0.0887 -2.49333,-0.0887 z m -2.16111,4.538 c -3.03681,0.20592 -5.95897,0.83482 -8.70545,1.83297 a 29.383202,29.383202 0 0 0 1.47032,3.06499 c 1.32738,-0.46292 2.69931,-0.83284 4.10787,-1.09843 0.97626,-1.32151 2.02143,-2.58838 3.12726,-3.79953 z m -4.07482,5.12957 c -0.88262,0.20744 -1.74822,0.45946 -2.59653,0.74905 a 29.383202,29.383202 0 0 0 1.06931,1.64898 c 0.48824,-0.81369 0.99139,-1.61773 1.52722,-2.39803 z"
         id="path14262"
         inkscape:connector-curvature="0" />
      <path
         style="color:#000000;font-style:normal;font-variant:normal;font-weight:normal;font-stretch:normal;font-size:medium;line-height:normal;font-family:sans-serif;font-variant-ligatures:normal;font-variant-position:normal;font-variant-caps:normal;font-variant-numeric:normal;font-variant-alternates:normal;font-feature-settings:normal;text-indent:0;text-align:start;text-decoration:none;text-decoration-line:none;text-decoration-style:solid;text-decoration-color:#000000;letter-spacing:normal;word-spacing:normal;text-transform:none;writing-mode:lr-tb;direction:ltr;text-orientation:mixed;dominant-baseline:auto;baseline-shift:baseline;text-anchor:start;white-space:normal;shape-padding:0;clip-rule:nonzero;display:inline;overflow:visible;visibility:visible;opacity:1;isolation:auto;mix-blend-mode:normal;color-interpolation:sRGB;color-interpolation-filters:linearRGB;solid-color:#000000;solid-opacity:1;vector-effect:none;fill:#1a1a1a;fill-opacity:1;fill-rule:nonzero;stroke:none;stroke-width:2.01657915;stroke-linecap:round;stroke-linejoin:miter;stroke-miterlimit:4;stroke-dasharray:none;stroke-dashoffset:0;stroke-opacity:1;marker:none;paint-order:markers fill stroke;color-rendering:auto;image-rendering:auto;shape-rendering:auto;text-rendering:auto;enable-background:accumulate"
         d="m 629.18441,258.72757 c -16.80867,0 -31.50019,9.1456 -39.37295,22.72434 a 29.383202,29.383202 0 0 0 2.39803,2.64151 c 7.13047,-13.09386 20.99982,-21.97527 36.97492,-21.97527 4.5383,0 8.90032,0.7299 12.99328,2.05659 a 29.383202,29.383202 0 0 0 0.0489,-0.96745 29.383202,29.383202 0 0 0 -0.13742,-2.60182 c -4.09309,-1.2134 -8.42028,-1.8779 -12.90465,-1.8779 z m 0,4.61076 c -15.59241,0 -29.15291,8.76331 -36.0419,21.62329 a 29.383202,29.383202 0 0 0 2.6733,2.16512 c 6.20584,-12.11422 18.80595,-20.39645 33.3686,-20.39652 4.38091,7e-5 8.57735,0.76371 12.48244,2.14268 a 29.383202,29.383202 0 0 0 0.44729,-3.43165 c -4.06569,-1.35844 -8.41031,-2.10292 -12.92973,-2.10292 z m 0,4.55253 c -14.13031,0 -26.3853,8.10125 -32.38664,19.90288 a 29.383202,29.383202 0 0 0 2.9393,1.67413 c 5.40199,-10.78925 16.54514,-18.19041 29.44734,-18.19035 3.94822,0 7.72652,0.70416 11.2318,1.97584 a 29.383202,29.383202 0 0 0 0.97536,-3.23437 c -3.8176,-1.36799 -7.92268,-2.12813 -12.20716,-2.12813 z m 0,4.45595 c -12.4466,0 -23.2335,7.16781 -28.4746,17.59082 a 29.383202,29.383202 0 0 0 3.15633,1.23349 c 4.7249,-9.17176 14.27542,-15.43771 25.31827,-15.43764 3.30417,0 6.47196,0.56735 9.42003,1.59998 a 29.383202,29.383202 0 0 0 1.44256,-3.06636 c -3.39242,-1.23517 -7.04689,-1.92029 -10.86259,-1.92029 z m 0,4.48774 c -10.50432,0 -19.63556,5.94761 -24.22382,14.64888 a 29.383202,29.383202 0 0 0 3.45281,0.73448 c 4.14136,-7.17282 11.87811,-11.99813 20.77101,-11.99813 2.37723,0 4.66934,0.35061 6.83542,0.99261 a 29.383202,29.383202 0 0 0 1.99173,-2.91153 c -2.77073,-0.94782 -5.73884,-1.46637 -8.82715,-1.46631 z m 0,4.35663 c -8.36509,0 -15.69289,4.49203 -19.72156,11.18549 a 29.383202,29.383202 0 0 0 3.38001,0.21437 29.383202,29.383202 0 0 0 0.536,-0.0188 c 3.56974,-4.8463 9.30912,-7.99081 15.80555,-7.99081 1.17574,0 2.3243,0.11088 3.44219,0.30838 a 29.383202,29.383202 0 0 0 2.75667,-2.84004 c -1.97362,-0.55531 -4.05006,-0.85947 -6.19886,-0.85947 z m 0,4.3117 c -5.89236,0 -11.14971,2.7504 -14.5801,7.02606 a 29.383202,29.383202 0 0 0 5.93423,-0.97277 c 1.80639,-1.23468 3.89344,-2.08962 6.14724,-2.45752 a 29.383202,29.383202 0 0 0 5.03558,-3.41314 c -0.83029,-0.11521 -1.67557,-0.1826 -2.53695,-0.1826 z"
         id="path14264"
         inkscape:connector-curvature="0" />
      <text
         transform="scale(0.99012303,1.0099755)"
         id="text14270"
         y="281.90894"
         x="585.58667"
         style="font-style:normal;font-weight:normal;font-size:74.52648163px;line-height:1.25;font-family:sans-serif;letter-spacing:0px;word-spacing:0px;opacity:1;fill:#000000;fill-opacity:1;stroke:#fcfcfc;stroke-width:1.86316216;stroke-opacity:1"
         xml:space="preserve"><tspan
           style="font-style:normal;font-variant:normal;font-weight:normal;font-stretch:normal;font-family:'EB Garamond';-inkscape-font-specification:'EB Garamond';stroke:#fcfcfc;stroke-width:1.86316216;stroke-opacity:1"
           y="281.90894"
           x="585.58667"
           id="tspan14268"
           sodipodi:role="line">W</tspan></text>
    </g>
    <g
       id="g983"
       inkscape:export-xdpi="96"
       inkscape:export-ydpi="96">
      <path
         inkscape:connector-curvature="0"
         id="path961"
         d="m 697.50889,229.28409 c -18.72174,0 -33.9226,15.20086 -33.9226,33.9226 0,18.72174 15.20086,33.92557 33.9226,33.92557 18.72174,0 33.92557,-15.20383 33.92557,-33.92557 0,-18.72174 -15.20383,-33.9226 -33.92557,-33.9226 z m 0,2.41752 c 17.41393,0 31.50508,14.09115 31.50508,31.50508 0,17.41395 -14.09115,31.50509 -31.50508,31.50509 -17.41393,0 -31.50509,-14.09114 -31.50509,-31.50509 0,-17.41393 14.09116,-31.50508 31.50509,-31.50508 z"
         style="color:#000000;font-style:normal;font-variant:normal;font-weight:normal;font-stretch:normal;font-size:medium;line-height:normal;font-family:sans-serif;font-variant-ligatures:normal;font-variant-position:normal;font-variant-caps:normal;font-variant-numeric:normal;font-variant-alternates:normal;font-feature-settings:normal;text-indent:0;text-align:start;text-decoration:none;text-decoration-line:none;text-decoration-style:solid;text-decoration-color:#000000;letter-spacing:normal;word-spacing:normal;text-transform:none;writing-mode:lr-tb;direction:ltr;text-orientation:mixed;dominant-baseline:auto;baseline-shift:baseline;text-anchor:start;white-space:normal;shape-padding:0;clip-rule:nonzero;display:inline;overflow:visible;visibility:visible;opacity:1;isolation:auto;mix-blend-mode:normal;color-interpolation:sRGB;color-interpolation-filters:linearRGB;solid-color:#000000;solid-opacity:1;vector-effect:none;fill:#1a1a1a;fill-opacity:1;fill-rule:nonzero;stroke:none;stroke-width:2.41989541;stroke-linecap:round;stroke-linejoin:miter;stroke-miterlimit:4;stroke-dasharray:none;stroke-dashoffset:0;stroke-opacity:1;marker:none;paint-order:markers fill stroke;color-rendering:auto;image-rendering:auto;shape-rendering:auto;text-rendering:auto;enable-background:accumulate" />
      <path
         inkscape:connector-curvature="0"
         id="path963"
         d="m 681.17329,258.72757 c -4.48869,0 -8.81966,0.66743 -12.91653,1.88321 a 29.383202,29.383202 0 0 0 -0.12951,2.59651 29.383202,29.383202 0 0 0 0.0343,0.97141 c 4.09785,-1.33012 8.46736,-2.06055 13.01181,-2.06055 3.23573,0 6.38356,0.36887 9.40816,1.05872 1.46588,-0.83398 2.98122,-1.58974 4.53932,-2.26566 -4.39596,-1.41764 -9.08293,-2.18364 -13.94748,-2.18364 z m 0,4.61076 c -4.52784,0 -8.88103,0.7476 -12.9536,2.11085 a 29.383202,29.383202 0 0 0 0.4844,3.41971 c 3.90133,-1.37592 8.09333,-2.1386 12.4692,-2.13867 1.28465,0 2.55244,0.0685 3.8035,0.19462 1.30001,-1.00865 2.65338,-1.9522 4.05627,-2.82289 -2.54426,-0.49722 -5.17089,-0.76358 -7.85977,-0.76358 z m 0,4.55253 c -4.28572,0 -8.39237,0.75943 -12.21115,2.12813 a 29.383202,29.383202 0 0 0 0.96346,3.23966 c 3.18218,-1.15482 6.59096,-1.83694 10.1466,-1.95472 1.13943,-1.16917 2.33985,-2.27784 3.59442,-3.32439 -0.82436,-0.0561 -1.65489,-0.0887 -2.49333,-0.0887 z m -2.16111,4.538 c -3.03681,0.20592 -5.95897,0.83482 -8.70545,1.83297 a 29.383202,29.383202 0 0 0 1.47032,3.06499 c 1.32738,-0.46292 2.69931,-0.83284 4.10787,-1.09843 0.97626,-1.32151 2.02143,-2.58838 3.12726,-3.79953 z m -4.07482,5.12957 c -0.88262,0.20744 -1.74822,0.45946 -2.59653,0.74905 a 29.383202,29.383202 0 0 0 1.06931,1.64898 c 0.48824,-0.81369 0.99139,-1.61773 1.52722,-2.39803 z"
         style="color:#000000;font-style:normal;font-variant:normal;font-weight:normal;font-stretch:normal;font-size:medium;line-height:normal;font-family:sans-serif;font-variant-ligatures:normal;font-variant-position:normal;font-variant-caps:normal;font-variant-numeric:normal;font-variant-alternates:normal;font-feature-settings:normal;text-indent:0;text-align:start;text-decoration:none;text-decoration-line:none;text-decoration-style:solid;text-decoration-color:#000000;letter-spacing:normal;word-spacing:normal;text-transform:none;writing-mode:lr-tb;direction:ltr;text-orientation:mixed;dominant-baseline:auto;baseline-shift:baseline;text-anchor:start;white-space:normal;shape-padding:0;clip-rule:nonzero;display:inline;overflow:visible;visibility:visible;opacity:1;isolation:auto;mix-blend-mode:normal;color-interpolation:sRGB;color-interpolation-filters:linearRGB;solid-color:#000000;solid-opacity:1;vector-effect:none;fill:#1a1a1a;fill-opacity:1;fill-rule:nonzero;stroke:none;stroke-width:2.01657915;stroke-linecap:round;stroke-linejoin:miter;stroke-miterlimit:4;stroke-dasharray:none;stroke-dashoffset:0;stroke-opacity:1;marker:none;paint-order:markers fill stroke;color-rendering:auto;image-rendering:auto;shape-rendering:auto;text-rendering:auto;enable-background:accumulate" />
      <text
         xml:space="preserve"
         style="font-style:normal;font-weight:normal;font-size:74.52648163px;line-height:1.25;font-family:sans-serif;letter-spacing:0px;word-spacing:0px;opacity:1;fill:#1a1a1a;fill-opacity:1;stroke:#fcfcfc;stroke-width:1.86316216;stroke-opacity:1"
         x="671.09796"
         y="281.90894"
         id="text969"
         transform="scale(0.99012303,1.0099755)"><tspan
           sodipodi:role="line"
           id="tspan967"
           x="671.09796"
           y="281.90894"
           style="font-style:normal;font-variant:normal;font-weight:normal;font-stretch:normal;font-family:'EB Garamond';-inkscape-font-specification:'EB Garamond';fill:#1a1a1a;fill-opacity:1;stroke:#fcfcfc;stroke-width:1.86316216;stroke-opacity:1">W</tspan></text>
      <path
         inkscape:connector-curvature="0"
         id="path965"
         d="m 713.85108,258.72757 c -16.80867,0 -31.50019,9.1456 -39.37295,22.72434 a 29.383202,29.383202 0 0 0 2.39803,2.64151 c 7.13047,-13.09386 20.99982,-21.97527 36.97492,-21.97527 4.5383,0 8.90032,0.7299 12.99328,2.05659 a 29.383202,29.383202 0 0 0 0.0489,-0.96745 29.383202,29.383202 0 0 0 -0.13742,-2.60182 c -4.09309,-1.2134 -8.42028,-1.8779 -12.90465,-1.8779 z m 0,4.61076 c -15.59241,0 -29.15291,8.76331 -36.0419,21.62329 a 29.383202,29.383202 0 0 0 2.6733,2.16512 c 6.20584,-12.11422 18.80595,-20.39645 33.3686,-20.39652 4.38091,7e-5 8.57735,0.76371 12.48244,2.14268 a 29.383202,29.383202 0 0 0 0.44729,-3.43165 c -4.06569,-1.35844 -8.41031,-2.10292 -12.92973,-2.10292 z m 0,4.55253 c -14.13031,0 -26.3853,8.10125 -32.38664,19.90288 a 29.383202,29.383202 0 0 0 2.9393,1.67413 c 5.40199,-10.78925 16.54514,-18.19041 29.44734,-18.19035 3.94822,0 7.72652,0.70416 11.2318,1.97584 a 29.383202,29.383202 0 0 0 0.97536,-3.23437 c -3.8176,-1.36799 -7.92268,-2.12813 -12.20716,-2.12813 z m 0,4.45595 c -12.4466,0 -23.2335,7.16781 -28.4746,17.59082 a 29.383202,29.383202 0 0 0 3.15633,1.23349 c 4.7249,-9.17176 14.27542,-15.43771 25.31827,-15.43764 3.30417,0 6.47196,0.56735 9.42003,1.59998 a 29.383202,29.383202 0 0 0 1.44256,-3.06636 c -3.39242,-1.23517 -7.04689,-1.92029 -10.86259,-1.92029 z m 0,4.48774 c -10.50432,0 -19.63556,5.94761 -24.22382,14.64888 a 29.383202,29.383202 0 0 0 3.45281,0.73448 c 4.14136,-7.17282 11.87811,-11.99813 20.77101,-11.99813 2.37723,0 4.66934,0.35061 6.83542,0.99261 a 29.383202,29.383202 0 0 0 1.99173,-2.91153 c -2.77073,-0.94782 -5.73884,-1.46637 -8.82715,-1.46631 z m 0,4.35663 c -8.36509,0 -15.69289,4.49203 -19.72156,11.18549 a 29.383202,29.383202 0 0 0 3.38001,0.21437 29.383202,29.383202 0 0 0 0.536,-0.0188 c 3.56974,-4.8463 9.30912,-7.99081 15.80555,-7.99081 1.17574,0 2.3243,0.11088 3.44219,0.30838 a 29.383202,29.383202 0 0 0 2.75667,-2.84004 c -1.97362,-0.55531 -4.05006,-0.85947 -6.19886,-0.85947 z m 0,4.3117 c -5.89236,0 -11.14971,2.7504 -14.5801,7.02606 a 29.383202,29.383202 0 0 0 5.93423,-0.97277 c 1.80639,-1.23468 3.89344,-2.08962 6.14724,-2.45752 a 29.383202,29.383202 0 0 0 5.03558,-3.41314 c -0.83029,-0.11521 -1.67557,-0.1826 -2.53695,-0.1826 z"
         style="color:#000000;font-style:normal;font-variant:normal;font-weight:normal;font-stretch:normal;font-size:medium;line-height:normal;font-family:sans-serif;font-variant-ligatures:normal;font-variant-position:normal;font-variant-caps:normal;font-variant-numeric:normal;font-variant-alternates:normal;font-feature-settings:normal;text-indent:0;text-align:start;text-decoration:none;text-decoration-line:none;text-decoration-style:solid;text-decoration-color:#000000;letter-spacing:normal;word-spacing:normal;text-transform:none;writing-mode:lr-tb;direction:ltr;text-orientation:mixed;dominant-baseline:auto;baseline-shift:baseline;text-anchor:start;white-space:normal;shape-padding:0;clip-rule:nonzero;display:inline;overflow:visible;visibility:visible;opacity:1;isolation:auto;mix-blend-mode:normal;color-interpolation:sRGB;color-interpolation-filters:linearRGB;solid-color:#000000;solid-opacity:1;vector-effect:none;fill:#1a1a1a;fill-opacity:1;fill-rule:nonzero;stroke:none;stroke-width:2.01657915;stroke-linecap:round;stroke-linejoin:miter;stroke-miterlimit:4;stroke-dasharray:none;stroke-dashoffset:0;stroke-opacity:1;marker:none;paint-order:markers fill stroke;color-rendering:auto;image-rendering:auto;shape-rendering:auto;text-rendering:auto;enable-background:accumulate" />
    </g>
  </g>
  <style
     id="style12500"
     type="text/css">
	.st0{fill:none;}
	.st1{fill:none;stroke:#000000;stroke-width:1.9303;stroke-linecap:round;stroke-linejoin:round;stroke-miterlimit:10;}
	.st2{fill:none;stroke:#000000;stroke-width:0.6207;stroke-linecap:round;stroke-linejoin:round;stroke-miterlimit:10;}
</style>
  <style
     id="style13904"
     type="text/css">
	.st0{fill:none;}
	.st1{fill:none;stroke:#000000;stroke-width:1.9303;stroke-linecap:round;stroke-linejoin:round;stroke-miterlimit:10;}
	.st2{fill:none;stroke:#000000;stroke-width:0.6207;stroke-linecap:round;stroke-linejoin:round;stroke-miterlimit:10;}
</style>
</svg>
